<svg id="svg" version="1.1" xmlns="http://www.w3.org/2000/svg" xmlns:xlink="http://www.w3.org/1999/xlink" width="400" height="76.5625" viewBox="0, 0, 400,76.5625"><g id="svgg"><path id="path0" d="M24.912 2.508 C 24.856 2.598,24.732 2.624,24.637 2.565 C 24.525 2.496,24.506 2.591,24.583 2.833 C 24.675 3.122,24.651 3.178,24.476 3.076 C 24.352 3.002,24.400 3.113,24.583 3.322 C 24.767 3.531,24.898 3.750,24.875 3.809 C 24.852 3.868,25.058 3.924,25.333 3.933 C 25.813 3.949,25.833 3.922,25.833 3.239 C 25.833 2.822,25.919 2.499,26.040 2.459 C 26.153 2.421,25.968 2.380,25.629 2.367 C 25.290 2.354,24.967 2.418,24.912 2.508 M25.331 2.625 C 25.323 3.049,25.107 3.506,24.997 3.329 C 24.848 3.087,24.982 2.500,25.186 2.500 C 25.267 2.500,25.332 2.556,25.331 2.625 M50.667 2.657 C 50.667 2.734,50.854 2.844,51.082 2.902 C 51.311 2.959,51.480 3.098,51.457 3.211 C 51.435 3.324,51.520 3.395,51.645 3.368 C 51.803 3.335,51.839 3.413,51.761 3.618 C 51.675 3.843,51.694 3.870,51.839 3.726 C 52.125 3.443,51.776 2.904,51.170 2.693 C 50.893 2.596,50.667 2.580,50.667 2.657 M50.770 3.300 C 50.718 3.386,50.815 3.583,50.987 3.739 C 51.159 3.894,51.343 3.952,51.396 3.866 C 51.449 3.781,51.351 3.584,51.179 3.428 C 51.007 3.272,50.823 3.215,50.770 3.300 M20.721 4.243 C 20.197 4.471,19.827 4.942,19.840 5.364 C 19.844 5.485,19.959 5.377,20.095 5.125 C 20.232 4.873,20.398 4.665,20.464 4.663 C 20.529 4.661,20.771 4.513,21.000 4.333 C 21.491 3.949,21.437 3.932,20.721 4.243 M20.750 4.699 C 20.031 5.107,19.990 5.500,20.667 5.500 C 21.111 5.500,21.167 5.444,21.167 5.000 C 21.167 4.725,21.148 4.502,21.125 4.505 C 21.102 4.508,20.933 4.595,20.750 4.699 M57.000 6.432 C 57.000 6.970,57.031 7.000,57.583 7.000 C 58.230 7.000,58.282 6.906,57.922 6.391 C 57.476 5.754,57.000 5.775,57.000 6.432 M15.379 7.386 C 15.400 7.494,15.323 7.565,15.208 7.542 C 15.094 7.519,15.000 7.575,15.000 7.667 C 15.000 7.758,15.087 7.833,15.192 7.833 C 15.308 7.833,15.274 7.956,15.109 8.138 C 14.713 8.576,14.743 8.603,15.667 8.645 L 16.500 8.683 16.497 8.133 C 16.496 7.831,16.440 7.508,16.372 7.417 C 16.194 7.174,15.333 7.147,15.379 7.386 M11.731 11.074 C 11.680 11.206,11.668 11.449,11.704 11.615 C 11.745 11.803,11.802 11.713,11.856 11.375 C 11.946 10.807,11.887 10.665,11.731 11.074 M316.206 11.843 C 315.264 12.029,315.198 12.082,315.073 12.747 C 314.971 13.288,314.928 13.319,314.191 13.367 L 313.417 13.417 313.369 14.958 L 313.321 16.500 312.670 16.500 C 311.811 16.500,311.781 16.577,311.808 18.713 C 311.833 20.755,311.936 21.000,312.770 21.000 L 313.333 21.000 313.333 22.218 C 313.333 24.207,312.982 24.083,318.648 24.083 C 324.366 24.083,324.014 24.204,324.130 22.204 C 324.206 20.901,324.210 20.890,324.728 20.737 C 326.109 20.330,326.048 16.500,324.661 16.500 L 324.179 16.500 324.131 14.958 L 324.083 13.417 323.293 13.366 C 322.620 13.323,322.487 13.256,322.403 12.920 C 322.130 11.833,319.009 11.291,316.206 11.843 M115.145 13.610 C 114.849 13.967,114.885 16.469,115.195 17.100 C 115.434 17.587,116.458 17.993,117.458 17.997 L 118.000 18.000 118.000 36.750 L 118.000 55.500 116.687 55.500 C 114.974 55.500,114.935 55.550,114.870 57.815 C 114.797 60.350,113.679 60.083,124.369 60.083 L 133.583 60.083 133.583 57.833 L 133.583 55.583 132.042 55.535 L 130.500 55.487 130.500 34.410 L 130.500 13.333 122.937 13.333 C 116.097 13.333,115.352 13.360,115.145 13.610 M74.319 15.193 C 74.113 15.579,74.184 18.956,74.406 19.315 C 74.482 19.439,75.503 19.500,77.510 19.500 L 80.500 19.500 80.500 37.500 L 80.500 55.500 78.167 55.500 C 76.883 55.500,75.833 55.563,75.833 55.640 C 75.833 55.717,75.642 55.867,75.408 55.974 C 74.080 56.579,74.189 59.833,75.537 59.833 C 75.700 59.833,75.833 59.908,75.833 60.000 C 75.833 60.260,100.373 60.227,100.633 59.967 C 100.879 59.721,100.908 56.553,100.671 55.928 L 100.508 55.500 96.754 55.500 L 93.000 55.500 93.000 49.250 L 93.000 43.000 99.678 43.000 C 107.077 43.000,107.000 43.011,107.000 41.994 L 107.000 41.333 108.383 41.333 C 109.930 41.333,110.167 41.209,110.167 40.393 C 110.167 39.876,110.198 39.850,110.875 39.801 L 111.583 39.750 111.634 38.958 L 111.685 38.167 112.347 38.167 C 113.167 38.167,113.333 37.827,113.333 36.156 C 113.333 35.134,113.370 35.000,113.648 35.000 C 113.821 35.000,114.140 34.857,114.357 34.682 L 114.750 34.363 114.750 28.752 C 114.750 22.599,114.761 22.667,113.739 22.667 C 113.399 22.667,113.370 22.573,113.301 21.252 C 113.215 19.623,113.240 19.667,112.356 19.549 C 111.705 19.461,111.682 19.437,111.634 18.771 C 111.584 18.096,111.571 18.082,110.905 18.034 C 110.257 17.986,110.221 17.953,110.072 17.284 L 109.917 16.583 108.461 16.433 L 107.006 16.283 106.903 15.737 C 106.745 14.896,107.197 14.919,90.383 14.871 L 74.516 14.825 74.319 15.193 M5.000 20.750 L 4.609 21.167 5.054 21.167 C 5.419 21.167,5.500 21.091,5.500 20.750 C 5.500 20.521,5.476 20.333,5.446 20.333 C 5.416 20.333,5.215 20.521,5.000 20.750 M99.167 21.570 C 99.167 22.330,99.312 22.666,99.643 22.672 C 99.793 22.675,100.123 22.859,100.375 23.081 L 100.833 23.484 100.833 28.575 L 100.833 33.667 100.345 33.667 C 99.724 33.667,99.333 34.056,99.333 34.675 C 99.333 35.070,99.248 35.178,98.875 35.257 C 98.119 35.416,97.919 35.591,97.864 36.142 L 97.812 36.667 95.406 36.667 L 93.000 36.667 93.000 28.833 L 93.000 21.000 96.083 21.000 L 99.167 21.000 99.167 21.570 M232.101 22.930 C 232.046 23.075,232.000 23.449,232.000 23.761 C 232.000 24.246,231.920 24.362,231.450 24.559 C 230.845 24.812,230.500 25.599,230.500 26.728 C 230.500 27.267,230.453 27.333,230.072 27.333 C 229.345 27.333,229.000 27.622,229.000 28.231 L 229.000 28.783 226.811 28.880 C 224.119 29.000,224.274 28.833,224.261 31.622 C 224.244 35.121,224.124 34.965,226.951 35.117 L 228.833 35.218 228.846 45.317 C 228.860 57.275,228.830 56.898,229.792 56.968 L 230.500 57.019 230.500 57.760 L 230.500 58.500 231.250 58.500 L 232.000 58.500 232.000 59.161 C 232.000 59.656,232.086 59.867,232.340 60.004 C 232.866 60.285,247.078 60.156,247.367 59.867 C 247.528 59.706,247.583 58.913,247.583 56.784 L 247.583 53.917 244.458 53.871 L 241.333 53.826 241.333 44.517 L 241.333 35.207 243.875 35.128 C 247.634 35.011,247.667 34.976,247.667 31.071 C 247.667 28.715,247.858 28.833,244.072 28.833 L 241.333 28.833 241.333 25.851 C 241.333 23.286,241.297 22.855,241.070 22.768 C 240.401 22.511,232.205 22.660,232.101 22.930 M3.833 23.000 C 3.833 23.092,3.732 23.167,3.609 23.167 C 3.359 23.167,2.934 23.608,2.790 24.016 C 2.715 24.229,2.822 24.282,3.327 24.282 L 3.958 24.282 3.940 23.558 C 3.925 22.953,3.833 22.472,3.833 23.000 M73.185 26.137 C 73.332 26.199,73.432 26.385,73.406 26.551 C 73.369 26.795,73.406 26.814,73.599 26.654 C 73.887 26.414,73.618 25.993,73.188 26.012 C 72.941 26.022,72.940 26.033,73.185 26.137 M1.512 28.272 C 1.149 28.734,1.050 29.092,1.333 28.917 C 1.425 28.860,1.500 28.736,1.500 28.642 C 1.500 28.547,1.669 28.329,1.875 28.157 C 2.081 27.985,2.162 27.842,2.054 27.839 C 1.946 27.836,1.702 28.031,1.512 28.272 M139.000 28.980 L 138.417 29.083 138.372 33.629 L 138.328 38.174 141.372 38.129 L 144.417 38.083 144.464 36.649 L 144.512 35.215 146.606 35.124 C 148.889 35.026,148.992 34.983,149.172 34.050 L 149.295 33.417 149.314 34.021 C 149.338 34.781,149.527 34.927,150.667 35.072 C 152.269 35.275,152.333 35.412,152.333 38.606 L 152.333 41.321 146.244 41.369 C 139.561 41.421,139.841 41.374,139.836 42.440 L 139.833 42.964 138.567 43.028 C 137.035 43.105,136.895 43.243,136.738 44.835 L 136.627 45.961 135.939 46.106 L 135.250 46.251 135.206 51.215 C 135.158 56.626,135.175 56.735,136.079 56.905 C 136.539 56.991,136.667 57.095,136.669 57.383 C 136.675 58.311,136.833 58.500,137.603 58.500 L 138.333 58.500 138.333 59.171 C 138.333 60.189,138.344 60.190,145.999 60.133 C 153.248 60.080,153.649 60.031,153.676 59.204 C 153.681 59.046,153.775 59.179,153.884 59.500 L 154.083 60.083 160.906 60.127 C 166.253 60.161,167.757 60.125,167.861 59.960 C 168.017 59.716,168.043 56.429,167.895 55.875 C 167.800 55.522,167.708 55.500,166.315 55.500 L 164.836 55.500 164.793 44.625 L 164.750 33.750 164.066 33.700 L 163.381 33.650 163.278 32.305 C 163.143 30.553,163.090 30.500,161.480 30.500 L 160.167 30.500 160.167 29.839 C 160.167 29.356,160.080 29.132,159.844 29.006 C 159.494 28.818,140.051 28.795,139.000 28.980 M166.496 29.261 C 166.308 29.754,166.287 31.005,166.440 32.476 L 166.547 33.500 167.267 33.500 C 167.963 33.500,167.993 33.522,168.162 34.150 C 168.337 34.798,168.578 35.000,169.180 35.000 C 169.462 35.000,169.502 35.133,169.517 36.125 C 169.542 37.871,169.637 38.074,170.459 38.134 L 171.154 38.185 171.202 39.718 L 171.250 41.250 171.958 41.301 L 172.667 41.352 172.679 42.801 C 172.695 44.603,172.934 45.335,173.615 45.667 C 174.114 45.910,174.132 45.957,174.243 47.376 C 174.367 48.947,174.510 49.167,175.406 49.167 C 175.833 49.167,175.833 49.169,175.833 50.647 C 175.833 52.252,175.882 52.325,176.958 52.331 C 177.315 52.333,177.333 52.396,177.333 53.652 C 177.333 55.047,177.822 56.202,178.505 56.418 C 178.797 56.511,178.996 57.519,178.999 58.925 C 179.000 59.751,179.222 59.995,179.992 60.017 L 180.583 60.035 179.917 60.240 C 179.184 60.464,179.101 60.653,178.913 62.501 C 178.832 63.294,178.753 63.456,178.332 63.698 C 178.065 63.852,177.797 64.170,177.738 64.405 C 177.679 64.641,177.564 64.833,177.482 64.833 C 177.400 64.833,177.333 65.171,177.333 65.583 C 177.333 66.301,177.312 66.333,176.847 66.333 C 175.986 66.333,175.833 66.474,175.833 67.268 L 175.833 68.000 174.514 68.000 C 172.577 68.000,172.667 68.097,172.667 65.993 C 172.667 63.368,172.688 63.400,170.792 63.257 C 168.922 63.117,168.000 63.248,168.000 63.654 C 168.000 63.810,167.780 64.148,167.512 64.405 C 166.100 65.758,166.328 73.667,167.779 73.667 C 167.901 73.667,168.000 73.779,168.000 73.917 C 168.000 74.403,180.105 74.256,180.250 73.768 C 180.281 73.666,180.351 73.377,180.406 73.125 C 180.483 72.771,180.603 72.667,180.931 72.667 C 181.691 72.667,182.000 72.383,182.000 71.682 C 182.000 71.068,182.026 71.039,182.648 70.939 C 183.411 70.817,183.474 70.695,183.612 69.059 L 183.716 67.833 184.340 67.833 C 185.102 67.833,185.167 67.697,185.167 66.088 C 185.167 64.792,185.247 64.667,186.079 64.667 C 186.587 64.667,186.667 64.406,186.667 62.741 C 186.667 61.355,186.671 61.339,187.167 61.083 C 187.442 60.941,187.667 60.763,187.667 60.688 C 187.667 60.613,187.817 60.378,188.000 60.167 C 188.276 59.848,188.333 59.543,188.333 58.391 L 188.333 57.000 188.821 57.000 C 189.649 57.000,189.833 56.648,189.833 55.071 L 189.833 53.667 190.313 53.667 C 191.106 53.667,191.244 53.318,191.309 51.141 L 191.368 49.167 192.012 49.167 C 192.848 49.167,193.000 48.873,193.000 47.261 C 193.000 46.027,193.009 46.000,193.417 46.000 C 194.311 46.000,194.500 45.535,194.500 43.333 L 194.500 41.333 195.232 41.333 C 196.122 41.333,196.167 41.245,196.167 39.486 L 196.167 38.167 196.754 38.167 C 197.498 38.167,197.667 37.782,197.667 36.091 C 197.667 34.919,197.684 34.865,198.094 34.762 C 198.372 34.693,198.605 34.455,198.760 34.086 C 198.982 33.553,199.052 33.514,199.874 33.467 L 200.750 33.417 200.796 31.213 C 200.853 28.521,201.665 28.811,194.250 28.870 L 188.417 28.917 188.370 31.208 L 188.324 33.500 189.870 33.527 C 190.721 33.541,191.154 33.583,190.833 33.619 C 189.969 33.717,189.834 34.013,189.828 35.824 C 189.822 37.554,189.464 38.333,188.675 38.333 C 188.355 38.333,188.333 38.432,188.333 39.917 L 188.333 41.500 187.783 41.500 C 187.070 41.500,186.833 41.756,186.833 42.528 C 186.833 43.245,186.509 43.267,186.192 42.572 C 186.089 42.346,185.826 42.080,185.608 41.981 C 185.243 41.815,185.204 41.679,185.125 40.287 C 185.032 38.662,184.851 38.333,184.051 38.333 C 183.686 38.333,183.667 38.274,183.667 37.178 C 183.667 35.501,183.501 35.167,182.671 35.167 L 182.000 35.167 182.000 34.333 L 182.000 33.500 183.411 33.500 C 185.162 33.500,185.167 33.493,185.167 31.017 C 185.167 29.370,185.133 29.160,184.844 29.006 C 184.634 28.893,181.428 28.833,175.590 28.833 L 166.658 28.833 166.496 29.261 M205.792 28.948 C 205.569 29.006,205.500 29.200,205.500 29.762 L 205.500 30.500 204.322 30.500 C 202.822 30.500,202.567 30.641,202.431 31.544 C 202.342 32.141,202.240 32.295,201.838 32.447 C 200.918 32.794,200.833 33.320,200.836 38.645 C 200.839 43.959,200.882 44.213,201.795 44.302 C 202.284 44.350,202.333 44.405,202.333 44.914 C 202.333 45.850,202.461 46.000,203.258 46.000 L 203.981 46.000 204.032 46.708 C 204.081 47.378,204.115 47.421,204.667 47.499 C 204.987 47.545,204.275 47.620,203.083 47.666 L 200.917 47.750 200.873 53.521 C 200.831 59.003,200.845 59.311,201.150 59.687 L 201.471 60.083 210.999 60.083 C 221.603 60.083,221.000 60.150,221.000 58.977 C 221.000 58.548,221.051 58.515,221.792 58.467 L 222.583 58.417 222.635 57.708 C 222.682 57.052,222.721 57.000,223.163 57.000 C 224.121 57.000,224.167 56.924,224.167 55.316 L 224.167 53.833 224.708 53.831 C 225.736 53.826,225.745 53.801,225.806 50.558 C 225.884 46.434,225.838 46.199,224.949 46.134 L 224.250 46.083 224.167 44.583 L 224.083 43.083 223.375 43.032 C 222.671 42.981,222.667 42.977,222.667 42.330 C 222.667 41.577,222.364 41.333,221.428 41.333 C 220.952 41.333,220.833 41.269,220.833 41.012 C 220.833 40.665,220.124 40.020,219.686 39.968 C 219.538 39.951,220.129 39.894,221.000 39.843 L 222.583 39.750 222.627 34.428 C 222.662 30.281,222.625 29.076,222.461 28.972 C 222.244 28.835,206.314 28.812,205.792 28.948 M255.129 29.099 C 254.461 29.304,254.320 29.423,254.202 29.879 C 254.074 30.377,254.003 30.423,253.240 30.500 L 252.417 30.583 252.366 31.283 C 252.316 31.975,252.308 31.982,251.616 32.033 L 250.917 32.083 250.866 32.866 L 250.816 33.648 250.116 33.699 L 249.417 33.750 249.306 34.583 C 249.246 35.042,249.189 36.073,249.181 36.875 L 249.167 38.333 248.518 38.333 C 247.635 38.333,247.667 38.106,247.667 44.441 C 247.667 50.570,247.681 50.667,248.589 50.667 L 249.167 50.667 249.181 52.125 C 249.209 54.890,249.305 55.226,250.116 55.397 C 250.789 55.538,250.818 55.570,250.866 56.230 C 250.916 56.908,250.926 56.917,251.616 56.967 C 252.308 57.018,252.316 57.025,252.366 57.717 L 252.417 58.417 253.208 58.467 C 253.751 58.502,254.000 58.592,254.000 58.751 C 254.000 60.094,254.479 60.167,263.348 60.167 C 271.534 60.167,271.790 60.133,272.220 58.994 C 272.382 58.565,272.488 58.510,273.242 58.466 L 274.083 58.417 274.135 57.708 C 274.185 57.010,274.195 57.000,274.810 57.000 C 275.576 57.000,275.833 56.763,275.833 56.058 C 275.833 55.569,275.891 55.504,276.421 55.405 C 277.238 55.252,277.333 54.967,277.333 52.687 L 277.333 50.686 278.042 50.635 L 278.750 50.583 278.750 44.500 L 278.750 38.417 278.042 38.365 L 277.333 38.314 277.333 36.313 C 277.333 33.982,277.223 33.667,276.411 33.667 C 275.853 33.667,275.833 33.645,275.833 33.033 C 275.833 32.235,275.598 32.000,274.800 32.000 L 274.167 32.000 274.167 31.250 L 274.167 30.500 273.363 30.500 C 272.572 30.500,272.556 30.490,272.404 29.875 C 272.162 28.894,271.864 28.860,263.333 28.858 C 257.313 28.857,255.768 28.902,255.129 29.099 M280.616 28.940 C 280.552 29.003,280.500 30.056,280.500 31.278 L 280.500 33.500 282.083 33.500 L 283.667 33.500 283.667 44.500 L 283.667 55.500 282.079 55.500 L 280.491 55.500 280.537 57.792 L 280.583 60.083 290.667 60.083 L 300.750 60.083 300.798 58.167 C 300.871 55.274,301.073 55.500,298.413 55.500 L 296.167 55.500 296.167 48.281 L 296.167 41.063 296.667 40.693 C 296.942 40.490,297.167 40.224,297.167 40.103 C 297.167 39.945,297.594 39.853,298.691 39.775 C 300.420 39.652,300.667 39.522,300.667 38.730 L 300.667 38.167 301.500 38.167 C 302.310 38.167,302.333 38.181,302.333 38.653 C 302.333 39.447,302.497 39.662,303.185 39.772 C 303.725 39.859,303.833 39.941,303.833 40.268 C 303.833 40.730,304.297 41.990,304.581 42.301 C 305.272 43.056,308.112 42.816,308.277 41.989 C 308.332 41.716,308.442 41.453,308.522 41.403 C 308.601 41.354,308.667 38.545,308.667 35.160 L 308.667 29.006 308.253 28.902 C 308.025 28.845,306.049 28.825,303.862 28.858 C 299.473 28.923,299.333 28.956,299.333 29.928 C 299.333 30.470,299.317 30.483,298.542 30.533 L 297.750 30.583 297.699 31.292 L 297.648 32.000 296.907 32.000 L 296.167 32.000 296.164 30.708 C 296.160 28.739,296.952 28.923,288.289 28.870 C 284.132 28.845,280.680 28.876,280.616 28.940 M310.280 28.943 C 310.217 29.005,310.167 30.056,310.167 31.278 L 310.167 33.500 311.750 33.500 L 313.333 33.500 313.333 44.486 L 313.333 55.472 311.339 55.528 C 308.756 55.600,308.769 55.588,308.694 57.890 C 308.615 60.310,307.664 60.074,317.734 60.136 C 329.548 60.209,328.927 60.329,328.794 57.998 C 328.665 55.737,328.368 55.503,325.626 55.501 L 324.169 55.500 324.126 42.208 L 324.083 28.917 317.238 28.873 C 313.473 28.849,310.342 28.881,310.280 28.943 M336.167 28.978 C 335.445 29.079,335.411 29.110,335.260 29.792 C 335.105 30.491,335.094 30.500,334.385 30.500 L 333.667 30.500 333.667 31.241 L 333.667 31.982 332.875 32.033 L 332.083 32.083 332.032 32.791 C 331.979 33.521,331.945 33.549,330.917 33.704 C 330.617 33.749,330.578 33.901,330.535 35.202 L 330.487 36.650 329.785 36.788 L 329.083 36.926 328.949 38.838 C 328.754 41.621,328.904 51.343,329.149 51.801 C 329.293 52.069,329.498 52.167,329.923 52.167 L 330.500 52.167 330.500 53.661 C 330.500 55.285,330.624 55.500,331.563 55.500 C 331.935 55.500,331.986 55.577,332.032 56.208 L 332.083 56.917 332.875 56.967 L 333.667 57.018 333.667 57.759 L 333.667 58.500 334.500 58.500 C 335.252 58.500,335.334 58.536,335.336 58.875 C 335.344 60.110,335.732 60.161,345.136 60.164 C 353.997 60.167,353.833 60.185,353.833 59.178 L 353.833 58.534 355.236 58.475 C 356.990 58.402,356.907 58.512,356.968 56.195 C 357.053 52.982,356.702 52.482,354.339 52.440 C 352.880 52.414,352.500 52.602,352.500 53.354 L 352.500 53.833 348.510 53.833 L 344.519 53.833 344.468 53.125 C 344.417 52.420,344.413 52.416,343.708 52.365 C 343.107 52.322,343.000 52.259,342.998 51.949 C 342.992 51.023,342.833 50.833,342.064 50.833 L 341.333 50.833 341.333 49.256 L 341.333 47.680 348.891 47.631 C 354.998 47.593,356.502 47.539,356.725 47.355 C 356.971 47.150,357.000 46.527,357.000 41.480 C 357.000 35.263,356.984 35.167,355.934 35.167 C 355.548 35.167,355.532 35.118,355.475 33.744 C 355.411 32.177,355.303 32.007,354.375 32.003 C 353.845 32.000,353.833 31.985,353.833 31.250 L 353.833 30.500 353.091 30.500 C 352.376 30.500,352.344 30.479,352.240 29.923 C 352.045 28.885,352.309 28.919,344.266 28.895 C 340.224 28.883,336.579 28.920,336.167 28.978 M363.625 28.948 C 363.403 29.006,363.333 29.200,363.333 29.762 L 363.333 30.500 362.115 30.500 C 360.665 30.500,360.344 30.687,360.221 31.601 C 360.148 32.148,360.042 32.307,359.659 32.452 C 358.751 32.794,358.667 33.331,358.667 38.733 C 358.667 44.111,358.706 44.333,359.667 44.333 C 360.123 44.333,360.151 44.375,360.199 45.125 L 360.250 45.917 361.033 45.967 L 361.815 46.018 361.866 46.717 C 361.914 47.377,361.950 47.421,362.500 47.499 C 362.821 47.545,362.108 47.620,360.917 47.666 L 358.750 47.750 358.750 53.695 C 358.750 56.964,358.806 59.695,358.873 59.762 C 359.182 60.071,361.140 60.147,368.833 60.149 C 378.674 60.153,378.824 60.135,378.831 58.967 C 378.833 58.550,378.890 58.515,379.625 58.467 L 380.417 58.417 380.468 57.708 C 380.515 57.052,380.554 57.000,380.996 57.000 C 381.955 57.000,382.000 56.924,382.000 55.316 L 382.000 53.833 382.542 53.831 C 383.578 53.826,383.578 53.827,383.637 50.298 C 383.700 46.524,383.631 46.211,382.716 46.136 L 382.083 46.083 382.000 44.583 L 381.917 43.083 381.208 43.032 C 380.525 42.983,380.500 42.961,380.500 42.419 C 380.500 41.689,380.126 41.333,379.358 41.333 C 378.823 41.333,378.714 41.265,378.550 40.831 C 378.431 40.516,378.154 40.240,377.805 40.091 C 377.266 39.860,377.295 39.852,378.833 39.802 L 380.417 39.750 380.461 34.520 C 380.492 30.800,380.450 29.224,380.315 29.062 C 380.131 28.840,364.448 28.733,363.625 28.948 M213.333 34.157 C 213.333 34.984,213.399 35.020,215.099 35.126 L 216.500 35.214 216.500 35.768 C 216.500 36.378,216.844 36.667,217.572 36.667 C 217.999 36.667,218.000 36.669,218.000 38.153 C 218.000 39.186,218.064 39.665,218.208 39.723 C 218.323 39.769,217.948 39.813,217.375 39.820 L 216.333 39.833 216.333 39.283 C 216.333 38.401,216.153 38.333,213.800 38.333 L 211.667 38.333 211.667 37.601 C 211.667 36.808,211.514 36.667,210.653 36.667 C 210.188 36.667,210.167 36.634,210.167 35.917 C 210.167 35.179,210.176 35.167,210.719 35.167 C 211.557 35.167,212.673 34.560,212.889 33.987 C 213.146 33.308,213.333 33.380,213.333 34.157 M371.199 34.202 C 371.259 35.030,371.459 35.124,373.208 35.150 L 374.333 35.167 374.333 35.744 C 374.333 36.377,374.667 36.667,375.394 36.667 C 375.805 36.667,375.811 36.687,375.864 38.250 L 375.917 39.834 375.042 39.834 C 374.214 39.833,374.167 39.810,374.167 39.406 C 374.167 38.395,374.024 38.333,371.661 38.333 L 369.500 38.333 369.500 37.601 C 369.500 36.808,369.347 36.667,368.486 36.667 C 368.021 36.667,368.000 36.634,368.000 35.917 C 368.000 35.199,368.021 35.167,368.486 35.167 C 369.352 35.167,370.495 34.563,370.691 34.003 C 370.936 33.298,371.139 33.377,371.199 34.202 M75.403 38.333 C 75.403 40.121,75.428 40.852,75.458 39.958 C 75.488 39.065,75.488 37.602,75.458 36.708 C 75.428 35.815,75.403 36.546,75.403 38.333 M264.881 36.427 C 264.988 37.849,265.166 38.167,265.854 38.167 L 266.333 38.167 266.333 44.500 L 266.333 50.833 265.875 50.836 C 265.093 50.840,264.978 51.029,264.879 52.477 L 264.786 53.833 263.250 53.833 L 261.715 53.833 261.614 52.751 C 261.488 51.405,261.314 51.071,260.673 50.943 L 260.167 50.842 260.167 44.421 L 260.167 38.000 260.579 38.000 C 261.157 38.000,261.513 37.376,261.622 36.173 L 261.713 35.167 263.249 35.167 L 264.785 35.167 264.881 36.427 M344.500 38.250 L 344.500 41.333 342.917 41.333 L 341.333 41.333 341.333 39.000 L 341.333 36.667 341.761 36.667 C 342.362 36.667,342.833 36.377,342.833 36.008 C 342.833 35.330,343.015 35.167,343.768 35.167 L 344.500 35.167 344.500 38.250 M74.696 42.451 C 74.322 42.818,74.161 43.116,74.198 43.372 C 74.252 43.736,74.273 43.729,74.780 43.186 C 75.097 42.847,75.267 42.521,75.208 42.367 C 75.144 42.200,75.177 42.154,75.305 42.232 C 75.412 42.299,75.500 42.278,75.500 42.186 C 75.500 41.839,75.231 41.927,74.696 42.451 M152.333 49.917 L 152.333 53.833 150.398 53.833 C 147.620 53.833,147.673 53.901,147.670 50.399 L 147.667 47.716 148.941 47.608 C 150.371 47.487,150.667 47.327,150.667 46.674 C 150.667 46.070,150.765 46.000,151.611 46.000 L 152.333 46.000 152.333 49.917 M1.895 47.793 C 1.976 47.928,1.883 48.059,1.636 48.161 C 1.285 48.304,1.300 48.316,1.792 48.290 C 2.401 48.259,2.462 48.145,2.051 47.812 C 1.856 47.654,1.808 47.648,1.895 47.793 M207.066 47.930 C 207.121 48.075,207.167 48.335,207.167 48.508 C 207.167 49.030,207.718 49.167,209.822 49.167 L 211.833 49.167 211.833 49.816 C 211.833 50.606,211.959 50.667,213.597 50.667 L 214.833 50.667 214.833 51.337 C 214.833 51.896,214.905 52.040,215.264 52.203 C 215.679 52.393,215.682 52.404,215.347 52.528 C 215.156 52.598,215.000 52.802,215.000 52.981 C 215.000 53.620,214.811 53.833,214.244 53.833 C 213.940 53.833,213.578 53.946,213.440 54.083 C 213.303 54.221,213.134 54.333,213.064 54.333 C 212.845 54.333,212.167 55.048,212.167 55.279 C 212.167 55.401,212.054 55.500,211.917 55.500 C 211.754 55.500,211.667 55.337,211.667 55.032 C 211.667 54.190,211.382 54.015,209.824 53.897 C 208.476 53.795,208.382 53.763,208.122 53.310 C 207.971 53.046,207.661 52.759,207.433 52.673 C 207.083 52.540,207.011 52.391,206.968 51.716 L 206.917 50.917 206.208 50.865 L 205.500 50.814 205.500 49.504 C 205.500 48.783,205.454 48.075,205.399 47.930 C 205.315 47.712,205.440 47.667,206.131 47.667 C 206.737 47.667,206.992 47.739,207.066 47.930 M364.905 48.248 C 365.057 49.057,365.374 49.167,367.563 49.167 L 369.480 49.167 369.620 49.875 L 369.760 50.583 371.213 50.631 L 372.667 50.680 372.667 51.343 C 372.667 51.895,372.739 52.040,373.097 52.203 C 373.497 52.385,373.504 52.408,373.201 52.520 C 372.998 52.595,372.833 52.865,372.763 53.237 C 372.661 53.781,372.603 53.833,372.088 53.833 C 371.778 53.833,371.425 53.928,371.304 54.044 C 371.182 54.159,370.879 54.344,370.630 54.455 C 370.375 54.567,370.129 54.840,370.070 55.078 C 369.910 55.716,369.556 55.585,369.438 54.843 C 369.305 54.016,369.327 54.027,367.588 53.893 C 366.478 53.808,366.114 53.719,366.043 53.516 C 365.885 53.067,365.464 52.667,365.150 52.667 C 364.907 52.667,364.841 52.503,364.800 51.792 L 364.750 50.917 364.042 50.865 L 363.333 50.814 363.331 49.615 C 363.330 48.956,363.284 48.248,363.228 48.042 C 363.134 47.689,363.178 47.667,363.962 47.667 C 364.783 47.667,364.798 47.676,364.905 48.248 M71.167 54.161 C 71.167 54.531,71.581 54.465,71.732 54.070 C 71.792 53.915,71.710 53.833,71.495 53.833 C 71.280 53.833,71.167 53.946,71.167 54.161 M4.564 55.698 C 4.522 55.766,4.633 55.966,4.811 56.144 C 5.045 56.379,5.083 56.517,4.950 56.650 C 4.849 56.751,4.839 56.833,4.927 56.833 C 5.208 56.833,5.520 56.203,5.286 56.108 C 5.131 56.046,5.132 56.023,5.292 56.013 C 5.406 56.006,5.500 55.888,5.500 55.752 C 5.500 55.496,4.716 55.451,4.564 55.698 M4.279 56.289 C 4.236 56.359,4.306 56.513,4.434 56.632 C 4.625 56.808,4.667 56.802,4.667 56.600 C 4.667 56.317,4.394 56.098,4.279 56.289 M16.833 69.630 C 16.833 69.903,17.338 70.462,17.662 70.547 C 17.953 70.623,18.000 70.556,18.000 70.068 C 18.000 69.530,17.969 69.500,17.417 69.500 C 17.096 69.500,16.833 69.558,16.833 69.630 M57.920 70.327 C 57.885 70.385,57.909 70.520,57.975 70.626 C 58.059 70.761,58.151 70.730,58.281 70.521 C 58.429 70.285,58.417 70.222,58.227 70.222 C 58.094 70.222,57.956 70.270,57.920 70.327 " stroke="none" fill="#fcfcfc" fill-rule="evenodd"></path><path id="path1" d="M30.000 1.007 C 30.000 1.114,29.888 1.160,29.752 1.107 C 29.616 1.055,29.515 1.066,29.528 1.131 C 29.578 1.372,29.294 1.828,29.149 1.739 C 28.953 1.618,28.963 1.851,29.167 2.167 C 29.306 2.383,29.329 2.379,29.331 2.137 C 29.334 1.758,30.321 1.006,30.653 1.130 C 31.030 1.272,31.309 1.694,31.245 2.026 C 31.215 2.183,31.297 2.401,31.428 2.510 C 31.559 2.618,31.667 2.993,31.667 3.342 C 31.667 4.045,32.166 4.541,33.093 4.760 C 33.535 4.865,34.484 5.358,34.917 5.707 C 35.008 5.781,35.443 6.074,35.882 6.358 C 37.032 7.101,40.373 10.439,41.196 11.667 C 41.349 11.896,41.668 12.301,41.904 12.568 C 42.140 12.834,42.333 13.152,42.333 13.275 C 42.333 13.397,42.557 13.697,42.831 13.941 C 43.104 14.184,43.479 14.696,43.664 15.079 C 43.850 15.461,44.263 16.068,44.584 16.429 C 45.192 17.111,45.591 18.023,45.446 18.400 C 45.388 18.552,44.811 18.654,43.556 18.732 C 41.421 18.865,39.151 19.159,38.917 19.332 C 38.825 19.400,38.112 19.548,37.333 19.661 C 36.554 19.773,35.630 19.938,35.279 20.026 C 34.928 20.114,33.653 20.243,32.445 20.313 C 30.580 20.420,30.112 20.505,29.333 20.877 C 27.893 21.564,27.517 21.678,25.887 21.924 C 24.773 22.092,24.139 22.287,23.554 22.643 C 23.112 22.911,22.207 23.252,21.544 23.400 C 20.421 23.651,19.101 24.202,18.920 24.495 C 18.876 24.565,18.296 24.797,17.629 25.010 C 16.962 25.224,16.079 25.637,15.667 25.929 C 15.254 26.221,14.733 26.516,14.509 26.585 C 14.084 26.715,13.681 26.944,12.541 27.702 C 12.167 27.950,11.667 28.202,11.430 28.262 C 11.193 28.321,10.816 28.587,10.593 28.852 C 10.143 29.386,10.130 29.378,9.763 28.325 C 9.353 27.148,9.618 24.547,10.217 23.859 C 10.532 23.498,10.969 22.131,11.105 21.083 C 11.217 20.225,11.732 19.000,11.981 19.000 C 12.139 19.000,12.584 17.867,12.752 17.036 C 12.813 16.735,13.080 16.251,13.346 15.959 C 13.612 15.668,13.950 15.067,14.097 14.625 C 14.249 14.167,14.537 13.708,14.765 13.558 C 14.986 13.413,15.167 13.197,15.167 13.078 C 15.167 12.959,15.226 12.836,15.299 12.806 C 15.547 12.701,16.167 11.545,16.167 11.186 C 16.167 10.797,15.306 10.168,14.771 10.167 C 14.544 10.167,14.504 10.110,14.625 9.958 C 15.123 9.334,14.962 8.705,14.302 8.696 C 13.483 8.685,12.952 9.743,13.554 10.184 C 14.113 10.594,13.721 13.258,13.066 13.507 C 12.848 13.589,12.463 13.956,12.210 14.322 C 11.539 15.293,10.634 15.182,10.432 14.105 C 10.317 13.494,9.581 13.099,9.326 13.512 C 9.259 13.620,9.126 13.661,9.031 13.602 C 8.564 13.314,8.622 14.847,9.099 15.383 C 9.807 16.180,9.845 16.392,9.318 16.613 C 8.969 16.760,8.833 16.932,8.833 17.228 C 8.833 17.960,8.665 18.167,8.066 18.167 C 7.521 18.167,7.500 18.190,7.500 18.808 C 7.500 20.187,6.595 20.934,5.714 20.284 C 5.556 20.168,5.530 20.587,5.599 22.164 C 5.691 24.293,5.599 24.667,4.983 24.667 C 4.627 24.667,4.591 24.784,4.259 27.060 C 3.983 28.952,4.036 28.851,3.309 28.866 C 2.512 28.882,2.379 29.052,2.455 29.956 C 2.491 30.393,2.535 31.437,2.552 32.276 C 2.585 33.872,3.116 35.002,3.832 34.999 C 4.087 34.998,4.833 34.043,4.833 33.718 C 4.833 33.547,5.636 32.601,6.617 31.614 C 9.299 28.917,9.276 28.888,9.386 35.000 C 9.469 39.561,9.737 42.217,10.169 42.750 C 10.319 42.936,10.534 44.048,10.931 46.701 C 11.119 47.958,11.340 48.759,11.679 49.413 C 11.944 49.924,12.231 50.771,12.316 51.296 C 12.504 52.448,12.756 53.138,13.151 53.583 C 13.496 53.973,13.767 54.669,13.909 55.530 C 13.966 55.873,14.229 56.376,14.505 56.672 C 14.777 56.964,15.003 57.250,15.006 57.309 C 15.009 57.368,15.156 57.717,15.333 58.083 C 15.510 58.450,15.658 58.844,15.661 58.960 C 15.664 59.075,15.894 59.407,16.171 59.697 C 16.448 59.987,16.719 60.399,16.772 60.612 C 16.826 60.826,16.931 61.000,17.007 61.000 C 17.082 61.000,17.186 61.131,17.237 61.292 C 17.288 61.452,17.631 61.902,17.998 62.292 C 18.366 62.682,18.667 63.112,18.667 63.248 C 18.667 63.385,18.967 63.778,19.333 64.123 C 20.347 65.077,20.278 65.182,18.473 65.416 C 17.019 65.604,17.127 66.745,18.630 67.075 C 18.925 67.140,19.167 67.257,19.167 67.335 C 19.167 67.414,19.316 67.525,19.499 67.583 C 19.682 67.641,19.951 67.808,20.096 67.953 C 20.242 68.099,20.727 68.253,21.173 68.296 C 21.879 68.364,22.702 68.848,22.542 69.101 C 22.156 69.710,22.847 70.015,23.781 69.650 L 24.250 69.466 23.849 69.312 C 23.468 69.166,22.833 68.563,22.833 68.348 C 22.833 68.292,22.659 68.059,22.446 67.829 C 21.579 66.893,21.416 66.515,21.768 66.249 C 22.168 65.947,21.817 65.964,27.083 65.986 C 32.463 66.008,35.631 65.707,36.601 65.083 C 36.950 64.858,37.774 64.662,39.833 64.315 C 40.429 64.214,40.992 64.075,41.083 64.005 C 41.175 63.936,41.451 63.831,41.697 63.773 C 41.942 63.714,42.255 63.555,42.391 63.418 C 42.527 63.282,43.301 63.006,44.111 62.805 C 44.921 62.604,45.883 62.242,46.250 62.001 C 46.617 61.759,47.367 61.395,47.917 61.191 C 48.467 60.987,49.217 60.609,49.583 60.350 C 49.950 60.092,50.541 59.786,50.897 59.670 C 51.253 59.554,51.815 59.219,52.147 58.925 C 52.479 58.631,53.115 58.216,53.560 58.004 C 54.006 57.792,54.594 57.400,54.867 57.134 C 55.264 56.746,55.485 56.659,55.972 56.699 C 56.762 56.765,56.888 57.428,56.753 60.784 C 56.668 62.907,56.833 64.667,57.119 64.667 C 57.162 64.667,57.674 64.198,58.257 63.625 C 58.839 63.052,59.563 62.350,59.866 62.065 C 60.169 61.780,60.942 60.968,61.583 60.261 C 63.162 58.522,63.377 58.273,63.667 57.846 C 63.804 57.644,64.292 56.977,64.750 56.363 C 65.208 55.750,65.771 54.874,66.000 54.416 C 66.229 53.958,66.465 53.546,66.524 53.500 C 66.584 53.454,66.931 52.848,67.297 52.153 C 67.663 51.458,68.044 50.746,68.145 50.570 C 68.624 49.736,70.025 45.802,70.172 44.879 C 70.264 44.309,70.408 43.658,70.493 43.434 C 70.672 42.964,70.480 42.732,69.839 42.641 C 69.401 42.579,69.340 42.691,69.054 44.079 C 68.967 44.500,68.786 44.806,68.559 44.919 C 67.962 45.216,67.658 45.531,67.308 46.216 C 67.124 46.577,66.830 46.909,66.653 46.955 C 66.477 47.001,66.134 47.404,65.892 47.849 C 65.649 48.295,65.309 48.705,65.136 48.760 C 64.963 48.815,64.640 49.135,64.418 49.472 C 64.197 49.808,63.595 50.458,63.081 50.917 C 62.566 51.375,61.821 52.050,61.424 52.417 C 60.044 53.692,59.079 54.447,58.450 54.746 C 58.033 54.943,57.701 55.273,57.478 55.709 C 56.930 56.784,56.502 55.294,56.498 52.301 C 56.497 50.976,56.001 47.963,55.687 47.367 C 55.410 46.842,55.000 44.979,55.000 44.245 C 55.000 42.963,54.575 41.328,53.961 40.250 C 53.787 39.945,53.681 39.500,53.155 36.859 C 53.057 36.369,52.763 35.619,52.502 35.192 C 52.241 34.766,51.976 34.117,51.913 33.750 C 51.692 32.461,51.291 31.278,50.824 30.542 C 50.564 30.132,50.305 29.562,50.247 29.274 C 50.066 28.374,49.623 27.277,49.161 26.583 C 48.917 26.217,48.580 25.475,48.412 24.935 C 48.244 24.396,47.947 23.758,47.751 23.519 C 47.346 23.022,46.833 21.975,46.833 21.643 C 46.833 21.520,46.565 21.030,46.238 20.555 C 45.005 18.765,45.635 18.406,49.500 18.692 C 50.554 18.770,52.392 18.907,53.583 18.996 C 55.610 19.147,56.585 19.364,57.645 19.900 C 57.886 20.022,58.796 20.289,59.667 20.494 C 60.538 20.699,61.638 21.052,62.112 21.280 C 62.586 21.507,63.508 21.830,64.160 21.998 C 64.812 22.166,65.550 22.441,65.798 22.610 C 66.530 23.106,67.874 23.507,68.121 23.302 C 68.499 22.988,68.380 22.181,67.925 21.973 C 67.501 21.780,67.167 21.078,67.167 20.381 C 67.167 19.835,66.928 19.428,66.154 18.654 C 65.794 18.294,65.500 17.893,65.500 17.762 C 65.500 17.631,65.296 17.364,65.047 17.168 C 64.798 16.972,64.429 16.485,64.227 16.087 C 64.025 15.688,63.160 14.656,62.305 13.792 C 61.302 12.779,60.691 12.020,60.583 11.653 C 60.421 11.099,60.390 11.082,59.463 11.033 C 58.563 10.986,58.475 10.943,57.914 10.258 C 57.588 9.859,57.145 9.489,56.931 9.435 C 56.717 9.381,56.198 8.999,55.779 8.585 C 55.178 7.994,54.896 7.833,54.455 7.833 C 53.919 7.833,53.167 7.256,53.167 6.844 C 53.167 6.452,52.603 6.167,51.829 6.167 C 50.737 6.167,50.169 5.887,50.050 5.291 C 49.913 4.608,49.411 4.346,48.500 4.479 C 48.048 4.545,47.419 4.501,46.917 4.368 C 46.458 4.246,45.746 4.180,45.333 4.220 C 44.385 4.313,44.167 4.229,44.167 3.773 C 44.167 2.813,43.440 2.477,42.144 2.837 C 41.688 2.963,41.295 2.942,40.567 2.753 C 40.033 2.614,39.359 2.500,39.069 2.500 C 38.778 2.500,38.451 2.392,38.342 2.260 C 38.232 2.128,37.979 1.988,37.779 1.949 C 37.580 1.910,37.658 1.890,37.952 1.905 C 38.405 1.927,38.479 1.879,38.433 1.591 C 38.388 1.310,38.513 1.216,39.147 1.058 C 39.853 0.881,39.744 0.865,37.833 0.862 C 36.248 0.860,35.860 0.900,36.208 1.027 C 36.595 1.168,36.667 1.291,36.667 1.806 L 36.667 2.418 35.042 2.684 C 32.814 3.048,32.250 2.884,32.250 1.873 C 32.250 1.484,32.189 1.166,32.115 1.166 C 32.041 1.167,32.015 1.110,32.057 1.042 C 32.099 0.973,31.654 0.893,31.067 0.864 C 30.332 0.828,30.000 0.873,30.000 1.007 M44.500 0.909 C 44.500 0.950,44.767 1.111,45.092 1.265 C 45.418 1.420,45.650 1.636,45.608 1.745 C 45.566 1.855,45.637 1.944,45.766 1.944 C 46.038 1.944,46.076 1.733,45.831 1.582 C 45.737 1.524,45.704 1.408,45.756 1.324 C 45.808 1.239,45.723 1.220,45.565 1.280 C 45.355 1.361,45.315 1.331,45.415 1.169 C 45.503 1.027,45.487 0.988,45.371 1.060 C 45.271 1.122,45.143 1.096,45.085 1.003 C 44.983 0.837,44.500 0.760,44.500 0.909 M51.197 3.089 C 51.443 3.223,51.692 3.483,51.751 3.668 C 51.855 3.996,52.167 3.980,52.167 3.647 C 52.167 3.555,52.084 3.532,51.982 3.594 C 51.859 3.670,51.834 3.595,51.906 3.368 C 51.965 3.181,51.936 2.980,51.842 2.922 C 51.736 2.857,51.713 2.926,51.781 3.105 C 51.886 3.376,51.869 3.377,51.492 3.113 C 51.272 2.959,51.015 2.836,50.921 2.840 C 50.827 2.844,50.951 2.956,51.197 3.089 M18.235 5.740 C 18.008 5.992,17.926 7.232,18.145 7.097 C 18.241 7.038,18.278 6.883,18.228 6.752 C 18.123 6.480,18.798 5.742,19.267 5.616 C 19.441 5.569,19.316 5.538,18.989 5.547 C 18.662 5.557,18.323 5.643,18.235 5.740 M4.333 21.137 C 4.090 21.247,3.883 21.833,4.088 21.833 C 4.240 21.833,4.577 21.439,4.625 21.204 C 4.648 21.092,4.648 21.005,4.625 21.012 C 4.602 21.018,4.471 21.074,4.333 21.137 M1.490 27.974 C 1.227 28.187,1.106 28.469,1.097 28.890 C 1.089 29.225,1.026 29.499,0.957 29.500 C 0.887 29.500,0.843 29.831,0.858 30.235 C 0.882 30.869,0.919 30.938,1.122 30.735 C 1.251 30.606,1.497 30.500,1.669 30.500 C 2.060 30.500,2.262 30.195,2.027 29.960 C 1.901 29.834,1.903 29.680,2.035 29.433 C 2.199 29.125,2.190 29.109,1.958 29.300 C 1.734 29.485,1.677 29.463,1.579 29.153 C 1.489 28.868,1.432 28.839,1.318 29.020 C 1.199 29.207,1.171 29.199,1.169 28.981 C 1.166 28.641,1.793 27.832,2.054 27.839 C 2.162 27.842,2.081 27.985,1.875 28.157 C 1.480 28.487,1.378 28.833,1.677 28.833 C 1.774 28.833,1.799 28.920,1.734 29.026 C 1.662 29.142,1.688 29.173,1.800 29.104 C 1.902 29.041,1.946 28.887,1.898 28.762 C 1.850 28.637,1.974 28.420,2.174 28.281 C 2.542 28.022,2.495 27.667,2.092 27.667 C 1.970 27.667,1.699 27.805,1.490 27.974 M7.503 60.925 C 7.499 61.172,7.857 61.500,8.131 61.500 C 8.257 61.500,8.330 61.406,8.292 61.292 C 8.253 61.177,8.116 61.083,7.986 61.083 C 7.856 61.083,7.695 61.008,7.628 60.917 C 7.547 60.807,7.504 60.810,7.503 60.925 M23.000 72.917 C 23.000 73.210,23.582 73.833,23.856 73.833 C 23.960 73.833,23.847 73.678,23.606 73.488 C 23.364 73.298,23.168 73.054,23.170 72.946 C 23.172 72.838,23.304 72.908,23.462 73.101 C 23.620 73.294,23.898 73.504,24.078 73.568 C 24.329 73.657,24.289 73.565,23.912 73.180 C 23.373 72.631,23.000 72.523,23.000 72.917 " stroke="none" fill="#be1b09" fill-rule="evenodd"></path><path id="path2" d="M23.583 3.833 C 23.217 3.899,23.048 3.963,23.208 3.976 C 24.086 4.048,23.394 5.817,22.484 5.828 C 21.973 5.834,21.553 6.252,21.474 6.833 C 21.421 7.219,21.336 7.256,20.333 7.333 C 19.024 7.434,18.876 7.519,18.740 8.244 C 18.653 8.707,18.515 8.858,17.979 9.072 C 17.472 9.275,17.302 9.447,17.224 9.837 C 17.169 10.114,16.908 10.521,16.645 10.743 C 16.382 10.964,16.167 11.235,16.167 11.345 C 16.167 11.583,15.487 12.726,15.299 12.806 C 15.226 12.836,15.167 12.959,15.167 13.078 C 15.167 13.197,14.986 13.413,14.765 13.558 C 14.537 13.708,14.249 14.167,14.097 14.625 C 13.950 15.067,13.612 15.668,13.346 15.959 C 13.080 16.251,12.813 16.735,12.752 17.036 C 12.584 17.867,12.139 19.000,11.981 19.000 C 11.732 19.000,11.217 20.225,11.105 21.083 C 10.969 22.131,10.532 23.498,10.217 23.859 C 9.618 24.547,9.353 27.148,9.763 28.325 C 10.130 29.378,10.143 29.386,10.593 28.852 C 10.816 28.587,11.193 28.321,11.430 28.262 C 11.667 28.202,12.167 27.950,12.541 27.702 C 13.681 26.944,14.084 26.715,14.509 26.585 C 14.733 26.516,15.254 26.221,15.667 25.929 C 16.079 25.637,16.962 25.224,17.629 25.010 C 18.296 24.797,18.876 24.565,18.920 24.495 C 19.101 24.202,20.421 23.651,21.544 23.400 C 22.207 23.252,23.112 22.911,23.554 22.643 C 24.139 22.287,24.773 22.092,25.887 21.924 C 27.517 21.678,27.893 21.564,29.333 20.877 C 30.112 20.505,30.580 20.420,32.445 20.313 C 33.653 20.243,34.928 20.114,35.279 20.026 C 35.630 19.938,36.554 19.773,37.333 19.661 C 38.112 19.548,38.825 19.400,38.917 19.332 C 39.151 19.159,41.421 18.865,43.556 18.732 C 44.811 18.654,45.388 18.552,45.446 18.400 C 45.591 18.023,45.192 17.111,44.584 16.429 C 44.263 16.068,43.850 15.461,43.664 15.079 C 43.479 14.696,43.104 14.184,42.831 13.941 C 42.557 13.697,42.333 13.397,42.333 13.275 C 42.333 13.152,42.140 12.834,41.904 12.568 C 41.668 12.301,41.349 11.896,41.196 11.667 C 40.373 10.439,37.032 7.101,35.882 6.358 C 35.443 6.074,35.008 5.781,34.917 5.707 C 34.489 5.362,33.521 4.833,33.314 4.832 C 33.187 4.832,32.858 4.711,32.583 4.563 C 31.967 4.233,28.192 3.938,26.750 4.106 C 25.267 4.280,24.059 4.142,24.257 3.821 C 24.310 3.736,24.330 3.677,24.302 3.690 C 24.273 3.703,23.950 3.768,23.583 3.833 M46.583 18.653 C 45.464 18.783,45.371 19.296,46.238 20.555 C 46.565 21.030,46.833 21.520,46.833 21.643 C 46.833 21.975,47.346 23.022,47.751 23.519 C 47.947 23.758,48.244 24.396,48.412 24.935 C 48.580 25.475,48.917 26.217,49.161 26.583 C 49.623 27.277,50.066 28.374,50.247 29.274 C 50.305 29.562,50.564 30.132,50.824 30.542 C 51.291 31.278,51.692 32.461,51.913 33.750 C 51.976 34.117,52.241 34.766,52.502 35.192 C 52.763 35.619,53.057 36.369,53.155 36.859 C 53.681 39.500,53.787 39.945,53.961 40.250 C 54.575 41.328,55.000 42.963,55.000 44.245 C 55.000 44.979,55.410 46.842,55.687 47.367 C 55.933 47.833,56.489 50.820,56.596 52.250 C 56.651 52.983,56.770 53.826,56.860 54.122 L 57.024 54.661 57.672 54.331 C 58.028 54.149,58.419 54.000,58.540 54.000 C 58.661 54.000,58.846 53.774,58.950 53.497 C 59.075 53.165,59.345 52.909,59.743 52.742 C 60.098 52.594,60.411 52.316,60.507 52.066 C 60.704 51.547,60.994 51.244,61.426 51.107 C 61.606 51.050,61.887 50.695,62.050 50.318 C 62.249 49.860,62.506 49.573,62.826 49.452 C 63.149 49.330,63.334 49.121,63.397 48.805 C 63.482 48.382,64.522 46.701,64.823 46.500 C 64.892 46.454,65.002 46.192,65.068 45.917 C 65.134 45.642,65.364 45.154,65.579 44.833 C 67.063 42.624,68.340 33.266,67.674 29.486 C 67.587 28.990,67.429 27.983,67.324 27.250 C 67.218 26.517,67.032 25.729,66.910 25.500 C 66.788 25.271,66.648 24.896,66.598 24.667 C 66.539 24.393,66.291 24.147,65.878 23.951 C 65.532 23.787,65.123 23.435,64.971 23.170 C 64.805 22.880,64.373 22.547,63.889 22.335 C 62.624 21.781,62.415 21.664,61.916 21.235 C 61.659 21.014,61.325 20.833,61.174 20.833 C 60.768 20.833,57.973 20.086,57.568 19.870 C 56.746 19.430,55.662 19.157,54.417 19.077 C 53.683 19.030,52.333 18.920,51.417 18.833 C 48.928 18.597,47.511 18.544,46.583 18.653 M8.473 29.979 C 8.130 30.108,7.340 30.850,5.574 32.699 C 5.339 32.946,5.002 33.433,4.826 33.782 C 4.369 34.689,4.143 34.930,3.632 35.057 C 3.283 35.144,3.163 35.292,3.102 35.710 C 2.749 38.119,2.608 39.282,2.615 39.729 C 2.620 40.015,2.621 40.737,2.618 41.333 C 2.615 41.929,2.626 42.904,2.642 43.500 C 2.706 45.901,2.346 46.465,1.156 45.827 C 0.788 45.631,0.646 47.698,1.011 47.924 C 1.109 47.984,1.148 48.143,1.097 48.276 C 1.037 48.430,1.074 48.474,1.197 48.398 C 1.327 48.318,1.354 48.372,1.280 48.565 C 1.220 48.722,1.238 48.809,1.321 48.758 C 1.404 48.706,1.499 48.748,1.534 48.851 C 1.572 48.967,1.680 48.935,1.821 48.764 C 2.014 48.532,2.010 48.506,1.795 48.589 C 1.517 48.696,1.357 48.415,1.176 47.500 C 1.072 46.975,1.097 46.917,1.425 46.917 C 1.679 46.917,1.763 46.993,1.701 47.167 C 1.635 47.349,1.707 47.332,1.968 47.102 C 2.286 46.824,2.338 46.818,2.428 47.053 C 2.489 47.211,2.825 47.362,3.267 47.428 C 4.202 47.568,4.187 47.535,4.182 49.420 C 4.176 51.381,4.323 51.833,4.963 51.833 C 5.618 51.833,5.831 52.111,5.850 52.992 C 5.876 54.162,6.040 54.575,6.507 54.640 C 7.093 54.722,7.475 55.123,7.676 55.867 C 7.792 56.300,7.990 56.579,8.272 56.707 C 8.505 56.813,8.874 57.254,9.095 57.691 C 9.316 58.126,9.695 58.617,9.937 58.782 C 10.179 58.948,10.722 59.440,11.142 59.875 C 11.562 60.310,11.998 60.667,12.111 60.667 C 12.224 60.667,12.514 60.925,12.755 61.241 C 12.996 61.558,13.431 61.896,13.722 61.994 C 14.012 62.092,14.550 62.436,14.917 62.757 C 15.283 63.079,15.883 63.420,16.250 63.516 C 17.733 63.904,17.927 63.941,18.126 63.875 C 18.469 63.760,18.360 63.009,17.944 62.617 C 17.730 62.415,17.310 61.726,17.010 61.086 C 16.710 60.446,16.328 59.827,16.161 59.711 C 15.995 59.594,15.770 59.229,15.661 58.900 C 15.552 58.571,15.360 58.102,15.233 57.859 C 15.106 57.616,15.002 57.368,15.001 57.309 C 15.000 57.250,14.777 56.964,14.505 56.672 C 14.229 56.376,13.966 55.873,13.909 55.530 C 13.767 54.669,13.496 53.973,13.151 53.583 C 12.756 53.138,12.504 52.448,12.316 51.296 C 12.231 50.771,11.944 49.924,11.679 49.413 C 11.340 48.759,11.119 47.958,10.931 46.701 C 10.534 44.048,10.319 42.936,10.169 42.750 C 9.737 42.217,9.468 39.557,9.380 34.952 C 9.283 29.852,9.252 29.686,8.473 29.979 M55.000 58.089 C 54.771 58.217,54.415 58.324,54.209 58.327 C 54.003 58.331,53.567 58.585,53.240 58.893 C 52.914 59.201,52.333 59.547,51.948 59.663 C 50.658 60.049,50.333 60.206,50.333 60.440 C 50.333 60.569,50.127 60.757,49.875 60.858 C 49.623 60.959,49.267 61.103,49.083 61.178 C 48.900 61.253,48.487 61.365,48.167 61.428 C 47.846 61.491,47.345 61.751,47.053 62.006 C 46.507 62.483,45.348 62.890,43.958 63.090 C 43.523 63.153,43.167 63.269,43.167 63.348 C 43.167 63.730,40.430 64.626,39.167 64.658 C 38.938 64.664,38.525 64.789,38.250 64.935 C 36.561 65.836,34.207 66.179,29.000 66.286 C 27.029 66.326,25.345 66.428,25.258 66.513 C 25.160 66.608,25.223 66.668,25.425 66.669 C 25.606 66.671,25.675 66.726,25.581 66.794 C 25.489 66.862,25.414 67.160,25.415 67.458 C 25.416 67.756,25.417 68.003,25.417 68.006 C 25.417 68.101,29.020 68.552,30.667 68.664 C 34.752 68.942,40.582 68.071,43.609 66.732 C 43.897 66.605,44.223 66.500,44.333 66.500 C 44.442 66.500,44.731 66.391,44.974 66.257 C 45.483 65.977,46.941 65.333,47.065 65.333 C 47.111 65.333,47.590 65.075,48.129 64.759 C 48.668 64.443,49.442 64.012,49.849 63.801 C 52.276 62.542,55.393 60.003,55.604 59.114 C 55.839 58.119,55.618 57.744,55.000 58.089 M45.997 75.254 C 45.881 75.394,45.834 75.556,45.893 75.615 C 45.952 75.674,46.000 75.637,46.000 75.533 C 46.000 75.429,46.105 75.384,46.233 75.433 C 46.361 75.482,46.515 75.443,46.575 75.347 C 46.644 75.236,46.578 75.211,46.398 75.280 C 46.204 75.355,46.151 75.327,46.232 75.195 C 46.406 74.914,46.245 74.955,45.997 75.254 " stroke="none" fill="#b4ba05" fill-rule="evenodd"></path><path id="path3" d="M31.846 1.016 C 32.201 1.148,32.266 1.266,32.228 1.712 L 32.181 2.250 32.310 1.750 C 32.484 1.070,32.403 0.909,31.871 0.882 L 31.417 0.858 31.846 1.016 M34.931 0.961 C 35.030 1.028,35.105 1.383,35.097 1.750 L 35.083 2.417 34.199 2.567 C 33.622 2.664,33.114 2.655,32.740 2.541 C 32.424 2.444,32.207 2.430,32.256 2.509 C 32.481 2.874,33.469 2.934,35.042 2.680 L 36.667 2.418 36.667 1.809 C 36.667 1.275,36.601 1.177,36.142 1.016 C 35.556 0.812,34.650 0.770,34.931 0.961 M39.147 1.058 C 38.513 1.216,38.388 1.310,38.433 1.591 C 38.479 1.879,38.405 1.927,37.952 1.905 C 37.658 1.890,37.580 1.910,37.779 1.949 C 37.979 1.988,38.232 2.128,38.342 2.260 C 38.451 2.392,38.778 2.500,39.069 2.500 C 39.359 2.500,40.033 2.614,40.567 2.753 C 41.295 2.942,41.688 2.963,42.144 2.837 C 43.440 2.477,44.167 2.813,44.167 3.773 C 44.167 4.229,44.385 4.313,45.333 4.220 C 45.746 4.180,46.458 4.246,46.917 4.368 C 47.419 4.501,48.048 4.545,48.500 4.479 C 49.411 4.346,49.913 4.608,50.050 5.291 C 50.169 5.887,50.737 6.167,51.829 6.167 C 52.603 6.167,53.167 6.452,53.167 6.844 C 53.167 7.256,53.919 7.833,54.455 7.833 C 54.896 7.833,55.178 7.994,55.779 8.585 C 56.198 8.999,56.717 9.381,56.931 9.435 C 57.145 9.489,57.588 9.859,57.914 10.258 C 58.475 10.943,58.563 10.986,59.463 11.033 C 60.390 11.082,60.421 11.099,60.583 11.653 C 60.691 12.020,61.302 12.779,62.305 13.792 C 63.160 14.656,64.025 15.688,64.227 16.087 C 64.429 16.485,64.798 16.972,65.047 17.168 C 65.296 17.364,65.500 17.631,65.500 17.762 C 65.500 17.893,65.794 18.294,66.154 18.654 C 66.928 19.428,67.167 19.835,67.167 20.381 C 67.167 21.078,67.501 21.780,67.925 21.973 C 68.380 22.181,68.499 22.988,68.121 23.302 C 67.874 23.507,66.530 23.106,65.798 22.610 C 65.550 22.441,64.837 22.169,64.215 22.005 C 63.592 21.841,62.858 21.621,62.583 21.517 L 62.083 21.328 62.500 21.660 C 62.729 21.843,62.977 21.994,63.051 21.996 C 63.506 22.009,64.736 22.761,64.971 23.170 C 65.123 23.435,65.532 23.787,65.878 23.951 C 66.291 24.147,66.539 24.393,66.598 24.667 C 66.648 24.896,66.788 25.271,66.910 25.500 C 67.032 25.729,67.218 26.517,67.324 27.250 C 67.429 27.983,67.587 28.990,67.674 29.486 C 68.340 33.266,67.063 42.624,65.579 44.833 C 65.364 45.154,65.134 45.642,65.068 45.917 C 65.002 46.192,64.892 46.454,64.823 46.500 C 64.522 46.701,63.482 48.382,63.397 48.805 C 63.334 49.121,63.149 49.330,62.826 49.452 C 62.506 49.573,62.249 49.860,62.050 50.318 C 61.887 50.695,61.606 51.050,61.426 51.107 C 60.994 51.244,60.704 51.547,60.507 52.066 C 60.411 52.316,60.098 52.594,59.743 52.742 C 59.345 52.909,59.075 53.165,58.950 53.497 C 58.846 53.774,58.661 54.000,58.540 54.000 C 58.419 54.000,58.030 54.148,57.675 54.329 L 57.030 54.658 56.848 54.138 C 56.748 53.851,56.653 53.197,56.637 52.683 L 56.607 51.750 56.542 52.583 C 56.468 53.541,56.798 56.125,57.011 56.257 C 57.090 56.305,57.303 56.053,57.485 55.695 C 57.701 55.272,58.037 54.941,58.450 54.746 C 59.079 54.447,60.044 53.692,61.424 52.417 C 61.821 52.050,62.566 51.375,63.081 50.917 C 63.595 50.458,64.197 49.808,64.418 49.472 C 64.640 49.135,64.963 48.815,65.136 48.760 C 65.309 48.705,65.649 48.295,65.892 47.849 C 66.134 47.404,66.477 47.001,66.653 46.955 C 66.830 46.909,67.124 46.577,67.308 46.216 C 67.658 45.531,67.962 45.216,68.559 44.919 C 68.786 44.806,68.967 44.500,69.054 44.079 C 69.340 42.691,69.401 42.579,69.839 42.641 C 70.480 42.732,70.672 42.964,70.493 43.434 C 70.408 43.658,70.264 44.309,70.172 44.879 C 70.025 45.802,68.624 49.736,68.145 50.570 C 68.044 50.746,67.663 51.458,67.297 52.153 C 66.931 52.848,66.584 53.454,66.524 53.500 C 66.465 53.546,66.229 53.958,66.000 54.416 C 65.771 54.874,65.208 55.750,64.750 56.363 C 64.292 56.977,63.804 57.644,63.667 57.846 C 63.377 58.273,63.162 58.522,61.583 60.261 C 60.942 60.968,60.169 61.780,59.866 62.065 C 59.563 62.350,58.839 63.052,58.257 63.625 C 57.674 64.198,57.162 64.667,57.119 64.667 C 56.833 64.667,56.668 62.907,56.753 60.784 C 56.888 57.428,56.762 56.765,55.972 56.699 C 55.485 56.659,55.264 56.746,54.867 57.134 C 54.594 57.400,54.006 57.792,53.560 58.004 C 53.115 58.216,52.479 58.631,52.147 58.925 C 51.815 59.219,51.253 59.554,50.897 59.670 C 50.541 59.786,49.950 60.092,49.583 60.350 C 49.217 60.609,48.467 60.987,47.917 61.191 C 47.367 61.395,46.617 61.759,46.250 62.001 C 45.883 62.242,44.921 62.604,44.111 62.805 C 43.301 63.006,42.527 63.282,42.391 63.418 C 42.255 63.555,41.942 63.714,41.697 63.773 C 41.451 63.831,41.175 63.936,41.083 64.005 C 40.992 64.075,40.429 64.214,39.833 64.315 C 37.774 64.662,36.950 64.858,36.601 65.083 C 35.631 65.707,32.463 66.008,27.083 65.986 C 21.817 65.964,22.168 65.947,21.768 66.249 C 21.416 66.515,21.579 66.893,22.446 67.829 C 22.659 68.059,22.833 68.292,22.833 68.348 C 22.833 68.563,23.468 69.166,23.849 69.312 L 24.250 69.466 23.781 69.650 C 22.847 70.015,22.156 69.710,22.542 69.101 C 22.702 68.848,21.879 68.364,21.173 68.296 C 20.727 68.253,20.242 68.099,20.096 67.953 C 19.951 67.808,19.682 67.641,19.499 67.583 C 19.316 67.525,19.167 67.414,19.167 67.335 C 19.167 67.257,18.925 67.140,18.630 67.075 C 17.614 66.852,17.324 66.486,17.598 65.772 C 17.658 65.616,18.000 65.477,18.473 65.416 C 20.278 65.182,20.347 65.077,19.333 64.123 C 18.967 63.778,18.667 63.385,18.667 63.248 C 18.667 63.112,18.367 62.682,18.000 62.293 C 17.633 61.904,17.333 61.676,17.333 61.787 C 17.333 61.898,17.558 62.219,17.833 62.500 C 18.344 63.022,18.499 63.750,18.126 63.875 C 17.927 63.941,17.733 63.904,16.250 63.516 C 15.883 63.420,15.283 63.079,14.917 62.757 C 14.550 62.436,14.012 62.092,13.722 61.994 C 13.431 61.896,12.996 61.558,12.755 61.241 C 12.514 60.925,12.224 60.667,12.111 60.667 C 11.998 60.667,11.562 60.310,11.142 59.875 C 10.722 59.440,10.179 58.948,9.937 58.782 C 9.695 58.617,9.316 58.126,9.095 57.691 C 8.874 57.254,8.505 56.813,8.272 56.707 C 7.990 56.579,7.792 56.300,7.676 55.867 C 7.474 55.119,7.106 54.744,6.458 54.628 C 5.739 54.500,6.059 55.171,6.834 55.417 C 7.025 55.478,7.172 55.677,7.180 55.886 C 7.233 57.294,7.550 58.000,8.129 58.000 C 8.928 58.000,9.256 58.710,8.827 59.511 C 8.618 59.903,7.737 59.948,7.337 59.587 C 7.089 59.363,7.069 59.403,7.107 60.045 C 7.182 61.326,7.227 61.405,7.972 61.574 C 8.678 61.733,8.769 61.896,8.681 62.841 C 8.664 63.022,8.831 63.110,9.245 63.138 C 9.569 63.159,9.833 63.100,9.833 63.005 C 9.833 62.911,9.777 62.845,9.708 62.860 C 9.442 62.916,9.007 62.623,9.110 62.457 C 9.170 62.361,9.143 62.328,9.051 62.385 C 8.955 62.445,8.878 62.286,8.870 62.013 C 8.857 61.543,9.238 61.333,10.104 61.333 C 10.370 61.333,10.433 62.664,10.180 62.925 C 10.085 63.022,10.109 63.323,10.241 63.702 C 10.396 64.148,10.404 64.339,10.270 64.387 C 9.957 64.500,10.331 64.749,10.847 64.771 C 11.115 64.782,11.429 64.801,11.545 64.813 C 11.678 64.825,11.758 65.080,11.758 65.490 C 11.758 66.230,11.942 66.528,12.173 66.162 C 12.287 65.983,12.329 65.975,12.331 66.134 C 12.333 66.296,12.668 66.343,13.671 66.318 C 15.304 66.279,15.277 66.253,15.038 67.630 C 14.871 68.593,14.879 68.777,15.097 68.941 C 15.297 69.092,15.305 69.153,15.134 69.229 C 15.013 69.282,15.064 69.315,15.250 69.303 C 15.433 69.292,15.708 69.337,15.860 69.403 C 16.012 69.470,16.500 69.494,16.943 69.456 C 17.387 69.419,18.012 69.455,18.333 69.538 C 18.654 69.620,19.003 69.695,19.109 69.705 C 19.215 69.714,19.262 69.827,19.213 69.954 C 19.164 70.082,19.012 70.143,18.877 70.091 C 18.713 70.028,18.660 70.075,18.718 70.227 C 18.841 70.546,18.282 70.488,18.137 70.167 C 18.067 70.013,18.019 70.126,18.012 70.458 C 18.005 70.756,18.056 70.991,18.125 70.980 C 18.194 70.969,19.281 70.969,20.542 70.980 L 22.833 71.000 22.833 71.649 C 22.833 72.344,22.613 72.542,22.016 72.386 C 21.821 72.335,21.667 72.374,21.667 72.474 C 21.667 72.576,21.917 72.633,22.250 72.607 C 22.684 72.572,22.837 72.628,22.846 72.822 C 22.855 72.994,22.888 73.012,22.944 72.875 C 23.072 72.556,23.377 72.630,23.809 73.086 C 24.113 73.407,24.143 73.500,23.940 73.500 C 23.796 73.500,23.592 73.338,23.486 73.140 C 23.307 72.807,23.281 72.802,23.129 73.073 C 23.017 73.273,23.027 73.426,23.159 73.558 C 23.306 73.704,23.323 73.670,23.229 73.417 C 23.118 73.121,23.136 73.109,23.384 73.311 C 23.537 73.436,23.622 73.603,23.573 73.684 C 23.523 73.764,23.599 73.785,23.741 73.730 C 23.892 73.673,24.000 73.720,24.000 73.843 C 24.000 74.271,24.233 73.808,24.271 73.304 C 24.320 72.667,24.552 72.506,25.426 72.503 C 26.299 72.499,26.772 72.821,26.544 73.263 C 26.453 73.439,26.410 73.672,26.449 73.780 C 26.489 73.891,26.316 74.011,26.052 74.057 C 25.794 74.102,27.158 74.126,29.083 74.111 L 32.583 74.083 32.550 74.875 L 32.517 75.667 33.644 75.667 L 34.771 75.667 34.760 74.875 C 34.749 73.988,34.964 73.862,36.121 74.079 C 36.689 74.186,36.698 74.200,36.640 74.927 L 36.581 75.667 37.499 75.645 C 38.320 75.625,38.355 75.611,37.833 75.506 L 37.250 75.390 37.667 75.205 L 38.083 75.021 37.607 75.011 C 37.274 75.003,37.157 74.931,37.219 74.770 C 37.268 74.644,37.232 74.465,37.139 74.373 C 36.942 74.175,40.101 73.904,40.633 74.073 C 41.011 74.193,41.120 75.319,40.775 75.539 C 40.670 75.606,41.221 75.652,42.000 75.641 C 42.779 75.630,43.252 75.589,43.051 75.550 C 42.815 75.505,42.718 75.394,42.777 75.240 C 42.828 75.108,42.796 75.000,42.708 75.000 C 41.985 75.000,42.794 74.175,43.618 74.072 C 45.535 73.832,47.484 74.241,47.175 74.818 C 47.085 74.986,47.065 75.182,47.131 75.255 C 47.196 75.327,47.156 75.333,47.041 75.267 C 46.889 75.179,46.879 75.059,47.005 74.823 C 47.220 74.422,47.052 74.408,46.596 74.792 L 46.250 75.083 46.583 74.667 L 46.917 74.250 46.546 74.564 C 46.342 74.737,46.211 74.938,46.257 75.011 C 46.302 75.084,46.263 75.191,46.169 75.248 C 45.789 75.483,46.020 75.689,46.542 75.581 C 47.170 75.451,47.500 75.096,47.500 74.551 C 47.500 74.201,47.578 74.165,48.375 74.147 C 48.856 74.137,49.119 74.094,48.958 74.052 C 48.798 74.010,48.661 73.887,48.654 73.779 C 48.647 73.672,48.616 73.451,48.585 73.289 C 48.506 72.876,48.938 72.500,49.491 72.500 C 50.230 72.500,51.003 72.693,50.904 72.854 C 50.854 72.934,50.893 73.000,50.990 73.000 C 51.087 73.000,51.167 72.921,51.167 72.823 C 51.167 72.726,51.241 72.693,51.332 72.749 C 51.550 72.884,51.150 73.316,50.896 73.219 C 50.793 73.179,50.661 73.334,50.603 73.562 C 50.531 73.852,50.361 73.999,50.041 74.047 C 49.673 74.103,49.706 74.122,50.208 74.142 C 50.552 74.155,50.833 74.102,50.833 74.023 C 50.833 73.944,51.021 73.915,51.251 73.959 C 51.813 74.067,52.211 73.709,52.131 73.168 C 52.078 72.807,52.137 72.728,52.479 72.700 C 52.959 72.660,53.174 72.487,52.875 72.380 C 52.757 72.338,52.667 72.027,52.667 71.666 L 52.667 71.027 53.729 70.913 C 54.313 70.850,54.932 70.866,55.104 70.947 C 55.276 71.029,55.754 71.051,56.167 70.996 C 56.653 70.932,56.826 70.855,56.659 70.777 C 56.478 70.693,56.421 70.487,56.468 70.088 C 56.548 69.400,56.986 69.252,58.455 69.416 C 59.078 69.485,59.337 69.467,59.190 69.365 C 59.065 69.279,58.839 69.240,58.688 69.279 C 58.456 69.340,58.422 69.232,58.473 68.592 L 58.534 67.833 59.267 67.833 L 60.000 67.833 60.000 67.083 L 60.000 66.333 61.639 66.333 L 63.279 66.333 63.306 65.639 C 63.339 64.804,63.271 64.877,64.083 64.799 C 64.748 64.736,64.750 64.733,64.800 63.960 L 64.851 63.185 65.550 63.134 C 66.244 63.084,66.250 63.077,66.301 62.384 L 66.352 61.684 67.131 61.634 C 67.911 61.583,67.911 61.583,67.961 60.923 C 68.015 60.215,68.201 60.007,68.786 60.003 C 69.356 59.999,69.466 59.580,69.488 57.342 C 69.500 56.202,69.539 55.239,69.576 55.202 C 69.761 55.017,70.872 55.125,71.010 55.342 C 71.108 55.495,71.134 55.039,71.079 54.094 C 71.032 53.275,70.964 52.575,70.927 52.538 C 70.891 52.502,70.938 52.248,71.034 51.975 C 71.248 51.359,72.330 51.317,72.525 51.917 C 72.593 52.126,72.640 51.961,72.650 51.472 C 72.665 50.752,72.703 50.685,73.155 50.586 C 73.877 50.427,74.490 49.220,74.002 48.918 C 73.782 48.782,73.299 49.143,73.426 49.349 C 73.475 49.428,73.434 49.645,73.335 49.830 C 73.042 50.378,73.310 50.213,73.668 49.625 C 73.850 49.327,73.999 49.147,73.999 49.224 C 74.002 49.751,73.282 50.488,73.082 50.164 C 73.024 50.071,72.917 50.031,72.844 50.077 C 72.771 50.122,72.698 49.521,72.681 48.741 L 72.649 47.324 73.215 47.386 C 73.527 47.420,73.868 47.502,73.974 47.567 C 74.119 47.657,74.167 45.978,74.167 40.851 C 74.167 34.525,74.188 34.003,74.458 33.829 C 74.736 33.650,74.736 33.646,74.458 33.732 C 74.190 33.816,74.167 33.635,74.167 31.483 C 74.167 29.356,74.143 29.167,73.905 29.405 C 73.468 29.842,72.692 29.744,72.565 29.237 C 72.371 28.465,72.596 26.521,72.921 26.162 C 73.084 25.981,73.138 25.833,73.040 25.833 C 72.941 25.833,72.823 25.927,72.777 26.042 C 72.731 26.156,72.678 25.725,72.660 25.083 C 72.643 24.442,72.594 24.048,72.552 24.208 C 72.510 24.369,72.462 24.503,72.446 24.506 C 71.200 24.773,70.893 24.582,71.095 23.666 C 71.145 23.437,71.171 22.837,71.151 22.333 C 71.132 21.829,71.126 21.132,71.138 20.784 C 71.151 20.413,71.093 20.192,70.999 20.251 C 70.906 20.308,70.882 20.234,70.943 20.075 C 71.089 19.694,70.691 19.486,70.042 19.605 L 69.500 19.704 69.500 18.849 C 69.500 17.934,69.479 17.923,68.387 18.254 C 68.008 18.369,67.788 17.849,67.874 17.040 C 67.919 16.606,67.923 16.344,67.881 16.458 C 67.837 16.581,67.511 16.667,67.089 16.667 C 66.232 16.667,66.213 16.621,66.275 14.710 L 66.319 13.336 64.766 13.425 L 63.212 13.514 63.119 12.816 C 63.015 12.044,62.808 11.840,62.125 11.836 L 61.667 11.833 61.647 10.375 C 61.636 9.573,61.633 8.869,61.640 8.811 C 61.648 8.753,61.345 8.702,60.968 8.696 C 60.591 8.691,60.229 8.601,60.164 8.496 C 60.083 8.365,60.015 8.387,59.945 8.569 C 59.663 9.304,57.814 8.816,57.722 7.983 C 57.645 7.278,57.459 7.172,56.292 7.169 L 55.333 7.167 55.333 6.518 C 55.333 5.776,55.262 5.731,54.000 5.685 C 53.496 5.666,52.933 5.623,52.750 5.588 C 52.567 5.554,52.292 5.520,52.140 5.513 C 51.938 5.503,51.877 5.375,51.915 5.042 C 51.943 4.790,51.880 4.475,51.775 4.343 C 51.627 4.158,51.631 4.131,51.792 4.228 C 51.909 4.298,52.000 4.271,52.000 4.166 C 52.000 4.063,51.869 3.992,51.708 4.009 C 51.548 4.025,50.528 4.030,49.442 4.019 L 47.466 4.000 47.526 3.250 C 47.590 2.441,47.084 2.126,46.182 2.412 C 45.913 2.497,45.858 2.464,45.936 2.261 C 46.002 2.088,45.941 2.000,45.758 2.000 C 45.605 2.000,45.527 2.075,45.583 2.167 C 45.640 2.258,45.626 2.336,45.552 2.338 C 45.477 2.341,44.511 2.409,43.404 2.490 C 40.615 2.693,40.259 2.605,40.254 1.709 C 40.250 1.095,40.299 1.007,40.667 0.949 C 40.956 0.903,40.905 0.881,40.500 0.874 C 40.179 0.869,39.571 0.952,39.147 1.058 M44.129 1.167 C 44.720 1.528,45.000 1.586,45.000 1.350 C 45.000 1.267,44.764 1.117,44.475 1.016 C 43.670 0.736,43.525 0.799,44.129 1.167 M45.117 0.992 C 45.253 1.145,45.266 1.314,45.158 1.515 C 44.949 1.906,45.229 2.080,45.550 1.759 C 45.684 1.625,45.850 1.569,45.919 1.633 C 45.987 1.697,45.943 1.585,45.820 1.383 C 45.697 1.180,45.563 1.049,45.522 1.089 C 45.481 1.130,45.328 1.074,45.182 0.965 C 44.963 0.801,44.952 0.806,45.117 0.992 M30.333 1.112 C 30.333 1.168,30.465 1.309,30.625 1.426 C 30.867 1.603,30.908 1.856,30.868 2.903 C 30.823 4.063,30.846 4.167,31.146 4.167 C 31.326 4.167,31.610 4.215,31.778 4.275 C 32.028 4.363,32.045 4.342,31.875 4.158 C 31.760 4.034,31.667 3.658,31.667 3.320 C 31.667 2.983,31.559 2.618,31.428 2.510 C 31.297 2.401,31.215 2.183,31.245 2.026 C 31.275 1.869,31.214 1.626,31.108 1.485 C 30.906 1.215,30.333 0.939,30.333 1.112 M19.267 5.620 C 18.348 5.855,17.873 7.057,18.625 7.246 C 18.839 7.299,18.968 7.416,18.913 7.506 C 18.857 7.596,19.004 7.582,19.238 7.475 C 19.622 7.300,19.662 7.193,19.643 6.391 C 19.632 5.901,19.614 5.509,19.603 5.519 C 19.592 5.530,19.441 5.575,19.267 5.620 M55.750 5.620 C 55.933 5.667,56.126 5.773,56.179 5.857 C 56.374 6.166,56.979 6.158,56.955 5.847 C 56.937 5.612,56.778 5.550,56.175 5.544 C 55.758 5.539,55.567 5.574,55.750 5.620 M14.833 9.300 C 14.833 9.557,14.743 9.857,14.633 9.967 C 14.478 10.122,14.510 10.167,14.777 10.167 C 14.966 10.167,15.404 10.360,15.752 10.595 L 16.383 11.024 16.718 10.690 C 16.902 10.506,17.143 10.091,17.254 9.767 L 17.456 9.179 16.687 9.186 C 15.833 9.194,15.402 9.124,15.227 8.949 C 14.988 8.710,14.833 8.848,14.833 9.300 M13.529 10.917 C 13.544 12.242,13.521 12.331,13.114 12.516 C 12.902 12.613,12.590 12.950,12.419 13.267 C 12.066 13.923,11.561 14.112,10.835 13.859 C 10.344 13.688,10.334 13.695,10.436 14.133 C 10.679 15.183,11.550 15.276,12.210 14.322 C 12.463 13.956,12.847 13.590,13.062 13.508 C 13.675 13.275,14.057 11.316,13.664 10.417 C 13.558 10.172,13.522 10.305,13.529 10.917 M62.500 10.285 C 62.637 10.336,62.844 10.452,62.958 10.543 C 63.104 10.658,63.167 10.637,63.167 10.473 C 63.167 10.335,62.979 10.230,62.708 10.215 C 62.456 10.202,62.362 10.233,62.500 10.285 M64.430 11.812 C 64.366 11.915,64.393 12.000,64.490 12.000 C 64.587 12.000,64.673 12.131,64.680 12.292 C 64.687 12.455,64.729 12.495,64.775 12.381 C 64.893 12.091,64.578 11.572,64.430 11.812 M67.500 15.000 C 67.318 15.117,67.310 15.162,67.468 15.164 C 67.588 15.166,67.640 15.242,67.583 15.333 C 67.527 15.425,67.597 15.500,67.740 15.500 C 67.883 15.500,68.000 15.425,68.000 15.333 C 68.000 15.242,67.921 15.167,67.823 15.167 C 67.726 15.167,67.693 15.092,67.750 15.000 C 67.878 14.793,67.820 14.793,67.500 15.000 M8.727 15.871 C 8.752 16.831,8.328 17.110,7.508 16.671 C 7.102 16.454,7.101 16.460,7.154 18.475 L 7.190 19.867 6.345 19.809 C 5.504 19.750,5.248 19.940,5.708 20.280 C 6.594 20.935,7.500 20.191,7.500 18.808 C 7.500 18.190,7.521 18.167,8.066 18.167 C 8.665 18.167,8.833 17.960,8.833 17.228 C 8.833 16.932,8.969 16.760,9.319 16.613 C 9.860 16.386,9.807 16.118,9.075 15.371 L 8.703 14.991 8.727 15.871 M68.944 16.611 C 68.741 16.814,68.830 17.167,69.083 17.167 C 69.221 17.167,69.333 17.246,69.333 17.343 C 69.333 17.440,69.247 17.466,69.141 17.401 C 69.021 17.326,68.994 17.355,69.069 17.477 C 69.219 17.719,69.500 17.564,69.500 17.240 C 69.500 17.108,69.387 17.000,69.250 17.000 C 69.112 17.000,69.000 16.921,69.000 16.823 C 69.000 16.726,69.087 16.701,69.192 16.766 C 69.312 16.840,69.340 16.812,69.266 16.692 C 69.128 16.469,69.095 16.461,68.944 16.611 M4.566 21.289 C 4.618 21.340,4.500 21.522,4.305 21.691 C 4.063 21.901,4.024 22.002,4.183 22.005 C 4.367 22.009,4.361 22.053,4.152 22.214 C 3.925 22.387,3.909 22.610,4.037 23.750 C 4.180 25.022,4.147 26.742,3.975 26.914 C 3.730 27.159,2.640 27.144,2.734 26.897 C 2.796 26.736,2.756 26.665,2.627 26.708 C 2.492 26.753,2.408 27.196,2.387 27.983 C 2.362 28.895,2.403 29.152,2.552 29.034 C 2.661 28.948,3.001 28.872,3.309 28.866 C 4.036 28.851,3.983 28.952,4.259 27.060 C 4.591 24.784,4.627 24.667,4.983 24.667 C 5.562 24.667,5.694 24.267,5.622 22.719 L 5.555 21.250 5.014 21.222 C 4.716 21.207,4.515 21.237,4.566 21.289 M72.130 22.863 C 72.067 23.023,72.122 23.227,72.258 23.340 C 72.389 23.449,72.455 23.604,72.405 23.686 C 72.355 23.767,72.393 23.833,72.490 23.833 C 72.587 23.833,72.667 23.683,72.667 23.500 C 72.667 23.317,72.597 23.167,72.512 23.167 C 72.427 23.167,72.331 23.035,72.299 22.875 C 72.245 22.607,72.231 22.606,72.130 22.863 M1.812 29.282 C 1.645 29.488,1.641 29.529,1.797 29.435 C 1.956 29.340,1.991 29.419,1.933 29.740 C 1.882 30.021,1.917 30.135,2.032 30.064 C 2.135 30.000,2.178 30.051,2.134 30.185 C 2.092 30.312,1.902 30.440,1.713 30.468 C 1.523 30.496,1.229 30.683,1.059 30.884 L 0.750 31.250 1.118 30.938 C 1.352 30.741,1.659 30.652,1.955 30.696 C 2.407 30.762,2.424 30.739,2.420 30.049 C 2.418 29.572,2.344 29.333,2.198 29.333 C 2.079 29.333,2.027 29.258,2.083 29.167 C 2.251 28.895,2.060 28.977,1.812 29.282 M2.467 31.875 L 2.417 32.750 1.784 32.785 C 1.269 32.814,1.123 32.751,1.003 32.452 C 0.863 32.105,0.854 32.111,0.844 32.553 C 0.838 32.811,0.909 33.162,1.000 33.334 C 1.112 33.543,1.112 33.681,1.000 33.750 C 0.640 33.973,0.806 34.526,1.175 34.329 C 1.698 34.049,2.393 34.195,2.581 34.625 C 2.672 34.831,2.803 35.000,2.873 35.000 C 3.084 35.000,3.016 35.488,2.746 35.899 C 2.501 36.274,1.788 36.351,1.042 36.085 C 0.884 36.029,0.833 36.415,0.833 37.678 C 0.833 39.275,0.847 39.338,1.156 39.173 C 1.333 39.078,1.735 39.000,2.049 39.000 L 2.620 39.000 2.804 37.792 C 2.905 37.127,3.026 36.284,3.073 35.918 C 3.120 35.552,3.236 35.227,3.329 35.196 C 3.608 35.103,3.529 34.885,3.010 34.317 C 2.529 33.790,2.522 33.756,2.618 32.390 C 2.672 31.626,2.671 31.000,2.617 31.000 C 2.562 31.000,2.495 31.394,2.467 31.875 M75.205 38.219 C 75.183 40.111,75.092 41.677,74.991 41.886 C 74.821 42.238,74.824 42.239,75.074 41.926 C 75.217 41.749,75.333 41.692,75.333 41.801 C 75.333 41.911,75.408 42.000,75.500 42.000 C 75.607 42.000,75.654 40.733,75.630 38.458 L 75.594 34.917 75.502 38.250 L 75.410 41.583 75.326 38.250 L 75.243 34.917 75.205 38.219 M74.833 42.635 C 74.604 42.869,74.545 42.966,74.701 42.850 C 74.857 42.733,75.075 42.694,75.185 42.761 C 75.306 42.836,75.341 42.814,75.275 42.707 C 75.214 42.609,75.255 42.498,75.366 42.461 C 75.479 42.424,75.498 42.354,75.408 42.302 C 75.321 42.251,75.063 42.401,74.833 42.635 M70.761 56.316 C 70.698 56.417,70.708 56.508,70.782 56.517 C 70.856 56.527,70.617 56.635,70.250 56.756 L 69.583 56.978 70.187 56.947 C 70.858 56.913,71.201 56.658,71.004 56.340 C 70.913 56.192,70.842 56.185,70.761 56.316 M5.530 57.529 C 5.559 57.728,5.696 57.921,5.833 57.958 C 6.041 58.014,6.044 57.998,5.851 57.863 C 5.723 57.773,5.664 57.580,5.720 57.433 C 5.777 57.287,5.745 57.167,5.650 57.167 C 5.555 57.167,5.501 57.330,5.530 57.529 M55.684 58.333 C 55.903 59.538,53.218 62.053,49.849 63.801 C 49.442 64.012,48.668 64.443,48.129 64.759 C 47.590 65.075,47.111 65.333,47.065 65.333 C 46.941 65.333,45.483 65.977,44.974 66.257 C 44.731 66.391,44.442 66.500,44.333 66.500 C 44.223 66.500,43.897 66.605,43.609 66.732 C 40.582 68.071,34.752 68.942,30.667 68.664 C 29.020 68.552,25.417 68.101,25.417 68.006 C 25.417 68.003,25.416 67.756,25.415 67.458 C 25.414 67.160,25.489 66.862,25.581 66.794 C 25.675 66.726,25.606 66.671,25.425 66.669 C 25.223 66.668,25.160 66.608,25.258 66.513 C 25.345 66.428,27.029 66.326,29.000 66.286 C 34.207 66.179,36.561 65.836,38.250 64.935 C 38.525 64.789,38.938 64.664,39.167 64.658 C 40.430 64.626,43.167 63.730,43.167 63.348 C 43.167 63.269,43.523 63.153,43.958 63.090 C 45.348 62.890,46.507 62.483,47.053 62.006 C 47.345 61.751,47.846 61.491,48.167 61.428 C 48.487 61.365,48.900 61.253,49.083 61.178 C 49.267 61.103,49.623 60.959,49.875 60.858 C 50.127 60.757,50.333 60.569,50.333 60.440 C 50.333 60.206,50.658 60.049,51.948 59.663 C 52.333 59.547,52.914 59.201,53.240 58.893 C 53.567 58.585,54.003 58.331,54.209 58.327 C 54.415 58.324,54.771 58.217,55.000 58.089 C 55.433 57.847,55.607 57.909,55.684 58.333 M5.500 58.337 C 5.500 58.427,5.775 58.500,6.111 58.500 C 6.825 58.500,6.801 58.423,6.042 58.278 C 5.730 58.219,5.500 58.244,5.500 58.337 M67.772 60.444 C 67.876 60.858,67.567 61.394,67.314 61.238 C 67.233 61.188,67.167 61.218,67.167 61.306 C 67.167 61.393,66.979 61.454,66.750 61.441 C 66.378 61.419,66.334 61.345,66.333 60.734 L 66.333 60.051 67.003 60.051 C 67.568 60.051,67.689 60.113,67.772 60.444 M7.986 61.083 C 8.116 61.083,8.253 61.177,8.292 61.292 C 8.330 61.406,8.257 61.500,8.131 61.500 C 7.857 61.500,7.499 61.172,7.503 60.925 C 7.504 60.810,7.547 60.807,7.628 60.917 C 7.695 61.008,7.856 61.083,7.986 61.083 M13.382 67.466 C 13.368 67.646,13.481 67.774,13.668 67.788 C 13.958 67.809,13.960 67.791,13.702 67.489 C 13.550 67.312,13.421 67.167,13.415 67.167 C 13.409 67.167,13.394 67.301,13.382 67.466 M16.472 68.399 C 16.445 68.803,16.368 68.939,16.204 68.876 C 16.077 68.827,16.008 68.653,16.051 68.489 C 16.105 68.285,16.056 68.220,15.896 68.281 C 15.735 68.343,15.695 68.287,15.766 68.102 C 15.976 67.556,16.514 67.782,16.472 68.399 M60.000 68.480 C 60.000 68.851,59.614 69.216,59.407 69.040 C 59.327 68.972,59.362 69.049,59.486 69.210 C 59.781 69.596,60.082 69.348,60.133 68.676 C 60.154 68.396,60.133 68.167,60.086 68.167 C 60.039 68.167,60.000 68.307,60.000 68.480 M54.977 72.152 C 54.551 72.498,54.608 72.743,55.073 72.564 C 55.302 72.477,55.315 72.424,55.139 72.313 C 54.969 72.205,54.985 72.171,55.208 72.169 C 55.369 72.168,55.500 72.092,55.500 72.000 C 55.500 71.767,55.426 71.788,54.977 72.152 M24.443 73.779 C 24.215 74.008,24.351 74.116,24.875 74.123 C 25.173 74.127,25.304 74.091,25.167 74.043 C 25.029 73.995,24.835 73.891,24.735 73.812 C 24.635 73.734,24.503 73.719,24.443 73.779 M27.583 74.667 C 27.499 74.803,27.514 74.844,27.623 74.777 C 27.776 74.682,28.079 75.092,28.038 75.339 C 28.030 75.388,28.173 75.429,28.356 75.429 C 28.657 75.429,28.662 75.409,28.414 75.228 C 28.263 75.117,28.045 74.897,27.929 74.738 C 27.762 74.511,27.689 74.496,27.583 74.667 " stroke="none" fill="#805454" fill-rule="evenodd"></path><path id="path4" d="M32.487 0.875 C 32.449 0.999,32.342 1.637,32.299 1.993 C 32.233 2.544,32.991 2.772,34.207 2.565 L 35.083 2.417 35.097 1.750 C 35.105 1.383,35.030 1.028,34.931 0.961 C 34.769 0.851,32.519 0.772,32.487 0.875 M40.667 0.949 C 40.299 1.007,40.250 1.095,40.254 1.709 C 40.259 2.605,40.615 2.693,43.404 2.490 C 44.511 2.409,45.471 2.341,45.536 2.338 C 45.602 2.336,45.614 2.223,45.562 2.089 C 45.511 1.954,45.382 1.860,45.276 1.880 C 45.170 1.900,45.104 1.792,45.129 1.640 C 45.163 1.430,45.086 1.386,44.811 1.457 C 44.593 1.515,44.489 1.487,44.550 1.387 C 44.606 1.297,44.562 1.214,44.451 1.205 C 44.340 1.195,43.950 1.109,43.583 1.014 C 42.937 0.847,41.519 0.815,40.667 0.949 M29.620 1.669 C 29.463 1.853,29.333 2.078,29.333 2.169 C 29.333 2.320,28.892 2.354,26.583 2.378 L 25.750 2.386 25.806 3.168 L 25.862 3.950 25.306 3.933 C 25.000 3.924,24.750 3.829,24.750 3.722 C 24.750 3.615,24.699 3.477,24.636 3.414 C 24.574 3.352,24.561 3.177,24.607 3.025 C 24.674 2.807,24.652 2.813,24.499 3.052 C 24.392 3.218,24.347 3.462,24.397 3.593 C 24.448 3.725,24.398 3.836,24.286 3.838 C 24.175 3.841,24.215 3.920,24.376 4.014 C 24.537 4.107,25.137 4.165,25.709 4.143 C 26.282 4.120,27.660 4.118,28.771 4.139 L 30.792 4.178 30.872 3.130 C 30.999 1.452,30.403 0.755,29.620 1.669 M47.334 2.440 C 47.522 2.492,47.570 2.696,47.526 3.254 L 47.466 4.000 49.307 4.000 C 51.018 4.000,51.615 3.860,51.144 3.569 C 51.010 3.487,50.993 3.522,51.090 3.683 C 51.209 3.881,51.189 3.882,50.950 3.689 C 50.628 3.428,50.725 3.136,51.089 3.275 C 51.329 3.368,51.399 3.550,51.346 3.956 C 51.331 4.078,51.426 4.121,51.583 4.060 C 51.936 3.925,51.573 3.344,50.941 3.033 C 50.699 2.913,50.500 2.739,50.500 2.646 C 50.500 2.553,50.350 2.525,50.167 2.583 C 49.980 2.643,49.833 2.613,49.833 2.516 C 49.833 2.300,48.657 2.322,48.375 2.544 C 48.235 2.654,48.167 2.646,48.167 2.520 C 48.167 2.416,47.926 2.342,47.625 2.353 C 47.327 2.363,47.196 2.403,47.334 2.440 M24.959 2.804 C 24.913 2.983,24.930 3.219,24.997 3.329 C 25.078 3.460,25.155 3.396,25.221 3.142 C 25.277 2.930,25.260 2.693,25.184 2.617 C 25.107 2.540,25.006 2.625,24.959 2.804 M52.003 4.052 C 52.001 4.248,51.927 4.309,51.792 4.228 C 51.631 4.131,51.627 4.158,51.775 4.343 C 51.880 4.475,51.943 4.790,51.915 5.042 C 51.877 5.375,51.938 5.503,52.140 5.513 C 52.292 5.520,52.567 5.554,52.750 5.588 C 52.933 5.623,53.496 5.666,54.000 5.685 C 55.262 5.731,55.333 5.776,55.333 6.518 L 55.333 7.167 56.292 7.169 C 57.460 7.172,57.645 7.278,57.723 7.988 C 57.799 8.679,58.120 8.865,59.126 8.801 L 59.917 8.750 59.923 8.054 C 59.926 7.671,59.870 7.394,59.798 7.439 C 59.726 7.483,59.667 7.445,59.667 7.354 C 59.667 7.262,59.535 7.187,59.375 7.187 C 57.906 7.186,57.017 6.945,56.967 6.534 C 56.935 6.264,56.799 6.096,56.586 6.066 C 56.405 6.040,56.230 5.939,56.197 5.842 C 56.165 5.746,56.000 5.667,55.831 5.667 C 55.437 5.667,54.989 5.222,55.098 4.939 C 55.144 4.818,55.066 4.624,54.924 4.506 C 54.783 4.389,54.666 4.358,54.664 4.438 C 54.663 4.518,54.605 4.494,54.535 4.385 C 54.465 4.274,53.929 4.163,53.329 4.135 C 52.736 4.106,52.195 4.008,52.128 3.917 C 52.059 3.823,52.004 3.883,52.003 4.052 M21.037 4.353 C 20.644 4.548,20.216 4.904,20.085 5.145 C 19.954 5.386,19.836 5.508,19.823 5.417 C 19.758 4.945,19.587 6.136,19.641 6.695 L 19.703 7.349 20.560 7.300 C 21.331 7.255,21.422 7.208,21.474 6.833 C 21.553 6.252,21.973 5.834,22.484 5.828 C 23.183 5.819,23.500 5.465,23.500 4.690 L 23.500 4.000 22.625 4.000 C 22.069 4.000,21.490 4.129,21.037 4.353 M21.167 5.000 C 21.167 5.444,21.111 5.500,20.667 5.500 C 20.161 5.500,20.072 5.397,20.294 5.069 C 20.396 4.919,20.979 4.523,21.125 4.505 C 21.148 4.502,21.167 4.725,21.167 5.000 M16.563 7.118 C 16.444 7.158,16.407 7.456,16.462 7.942 L 16.548 8.704 15.774 8.642 C 14.831 8.568,14.755 8.916,15.667 9.134 C 17.193 9.499,18.565 9.033,18.784 8.074 L 18.954 7.334 18.352 7.184 C 17.747 7.033,16.911 7.002,16.563 7.118 M15.313 7.396 C 15.301 7.453,15.281 7.556,15.268 7.625 C 15.255 7.694,15.175 7.862,15.090 8.000 C 14.965 8.203,14.982 8.213,15.176 8.056 C 15.309 7.949,15.479 7.862,15.556 7.861 C 15.825 7.861,15.838 7.712,15.587 7.503 C 15.448 7.387,15.324 7.339,15.313 7.396 M12.103 10.381 C 11.942 10.499,11.824 10.668,11.841 10.756 C 11.985 11.486,11.823 11.751,11.208 11.793 C 10.433 11.847,10.128 12.221,10.248 12.974 C 10.449 14.238,11.801 14.415,12.423 13.259 C 12.591 12.947,12.902 12.613,13.114 12.516 C 13.494 12.343,13.533 12.241,13.533 11.417 C 13.533 10.172,13.531 10.167,12.949 10.167 C 12.645 10.167,12.265 10.263,12.103 10.381 M61.667 11.000 C 61.667 11.797,61.686 11.833,62.125 11.836 C 62.808 11.840,63.015 12.044,63.119 12.818 L 63.213 13.516 63.981 13.467 L 64.750 13.417 64.730 12.784 C 64.709 12.097,64.287 11.621,63.798 11.733 C 63.426 11.819,63.157 11.484,63.242 11.043 C 63.293 10.779,63.173 10.629,62.754 10.430 C 61.812 9.983,61.667 10.059,61.667 11.000 M66.321 15.042 C 66.314 15.156,66.280 15.400,66.245 15.583 C 66.096 16.377,66.325 16.667,67.101 16.667 C 67.504 16.667,67.840 16.610,67.847 16.542 C 67.855 16.473,67.880 16.245,67.903 16.035 C 67.926 15.825,67.826 15.583,67.681 15.498 C 67.536 15.413,67.478 15.341,67.554 15.338 C 67.709 15.333,67.247 14.833,67.085 14.833 C 67.028 14.833,67.033 14.927,67.098 15.042 C 67.192 15.208,67.171 15.208,66.991 15.042 C 66.868 14.927,66.669 14.833,66.550 14.833 C 66.431 14.833,66.328 14.927,66.321 15.042 M7.955 15.182 C 7.792 15.276,7.711 15.443,7.773 15.552 C 7.836 15.661,7.825 15.694,7.750 15.626 C 7.555 15.449,7.167 15.819,7.167 16.181 C 7.167 16.837,8.685 17.079,8.806 16.442 C 8.995 15.445,8.574 14.822,7.955 15.182 M67.950 16.606 C 67.751 16.805,67.822 17.973,68.042 18.110 C 68.610 18.464,69.519 18.012,69.151 17.558 C 68.947 17.307,68.949 17.286,69.167 17.397 C 69.311 17.471,69.294 17.424,69.125 17.286 C 68.965 17.154,68.833 16.961,68.833 16.857 C 68.833 16.752,68.764 16.667,68.680 16.667 C 68.596 16.667,68.423 16.627,68.297 16.578 C 68.170 16.529,68.014 16.542,67.950 16.606 M6.917 18.000 C 6.860 18.092,6.640 18.167,6.427 18.167 C 5.284 18.167,5.245 19.728,6.387 19.801 L 7.185 19.852 7.148 18.843 C 7.111 17.797,7.090 17.720,6.917 18.000 M71.285 22.777 C 70.777 23.599,71.071 24.719,71.766 24.606 C 72.032 24.563,72.310 24.521,72.384 24.514 C 72.596 24.492,72.439 23.622,72.150 23.209 C 72.005 23.004,71.833 22.889,71.768 22.955 C 71.702 23.020,71.587 22.974,71.512 22.852 C 71.437 22.731,71.334 22.697,71.285 22.777 M2.574 24.583 C 2.257 25.080,2.272 26.847,2.592 26.724 C 2.764 26.658,2.807 26.708,2.736 26.892 C 2.637 27.150,3.730 27.159,3.986 26.903 C 4.143 26.746,4.211 24.334,4.060 24.321 C 3.033 24.229,2.771 24.275,2.574 24.583 M72.744 26.344 C 72.683 26.441,72.765 26.666,72.926 26.844 C 73.095 27.030,73.137 27.167,73.026 27.167 C 72.920 27.167,72.833 27.087,72.833 26.990 C 72.833 26.893,72.758 26.860,72.667 26.917 C 72.487 27.028,72.435 28.971,72.601 29.403 C 72.943 30.294,74.256 29.436,74.092 28.428 C 74.032 28.055,73.974 27.656,73.963 27.542 C 73.953 27.427,73.885 27.333,73.811 27.333 C 73.738 27.333,73.597 27.165,73.497 26.958 C 73.322 26.598,73.325 26.596,73.574 26.907 C 73.717 27.085,73.833 27.154,73.833 27.061 C 73.833 26.632,72.932 26.039,72.744 26.344 M1.864 28.583 C 1.665 28.813,1.581 29.000,1.678 29.000 C 1.774 29.000,1.799 29.087,1.734 29.192 C 1.660 29.313,1.688 29.340,1.810 29.264 C 1.918 29.198,1.965 29.079,1.917 29.000 C 1.868 28.921,1.916 28.802,2.023 28.736 C 2.130 28.669,2.174 28.687,2.120 28.774 C 2.066 28.861,2.090 29.042,2.173 29.175 C 2.278 29.343,2.317 29.226,2.302 28.792 C 2.275 28.050,2.313 28.068,1.864 28.583 M1.028 30.815 C 1.034 30.871,1.024 30.954,1.006 31.000 C 0.610 31.988,0.977 32.830,1.785 32.785 L 2.417 32.750 2.417 31.750 L 2.417 30.750 1.716 30.732 C 1.331 30.722,1.021 30.759,1.028 30.815 M74.172 38.425 C 74.158 43.200,74.172 43.264,75.014 42.227 C 75.161 42.046,75.172 41.983,75.044 42.060 C 74.904 42.144,74.869 42.101,74.936 41.926 C 74.990 41.785,75.083 41.698,75.142 41.735 C 75.428 41.911,75.194 34.640,74.903 34.319 C 74.223 33.567,74.186 33.772,74.172 38.425 M1.125 34.342 C 0.774 34.552,0.706 35.965,1.042 36.085 C 1.788 36.351,2.501 36.274,2.746 35.899 C 3.016 35.488,3.084 35.000,2.873 35.000 C 2.803 35.000,2.672 34.831,2.581 34.625 C 2.397 34.204,1.612 34.052,1.125 34.342 M75.167 34.859 C 75.167 34.937,75.017 34.850,74.833 34.667 C 74.650 34.483,74.500 34.284,74.500 34.224 C 74.500 34.164,74.650 34.251,74.833 34.417 C 75.017 34.583,75.167 34.782,75.167 34.859 M1.124 39.181 C 0.674 39.442,0.725 45.597,1.179 45.840 C 2.345 46.464,2.705 45.887,2.642 43.500 C 2.615 42.508,2.610 41.252,2.627 39.625 C 2.634 38.955,1.889 38.735,1.124 39.181 M1.571 46.961 C 1.236 47.190,1.153 47.660,1.467 47.550 C 1.698 47.469,1.711 47.492,1.542 47.675 C 1.251 47.989,1.282 48.146,1.625 48.088 C 1.785 48.061,1.894 47.943,1.866 47.825 C 1.824 47.650,1.863 47.651,2.074 47.826 C 2.344 48.049,2.426 48.348,2.208 48.314 C 1.862 48.259,1.500 48.351,1.500 48.495 C 1.500 48.584,1.625 48.608,1.777 48.550 C 1.971 48.476,2.016 48.506,1.927 48.649 C 1.843 48.786,1.892 48.838,2.076 48.803 C 2.313 48.757,2.359 48.968,2.409 50.333 C 2.473 52.100,2.626 53.000,2.862 53.000 C 2.949 53.000,2.978 53.067,2.927 53.149 C 2.808 53.343,3.306 53.534,3.557 53.390 C 3.663 53.330,3.695 53.341,3.628 53.415 C 3.560 53.490,3.614 53.633,3.748 53.734 C 3.952 53.887,4.092 54.532,4.202 55.819 C 4.230 56.150,4.812 56.700,5.006 56.580 C 5.094 56.525,5.167 56.564,5.167 56.667 C 5.167 56.769,5.234 56.812,5.316 56.761 C 5.499 56.648,5.731 57.143,5.682 57.542 C 5.662 57.702,5.744 57.834,5.865 57.836 C 6.040 57.838,6.038 57.867,5.857 57.982 C 5.550 58.176,5.839 58.337,6.543 58.364 C 7.099 58.385,7.102 58.390,7.063 59.142 C 7.040 59.579,7.080 59.808,7.157 59.682 C 7.252 59.529,7.326 59.519,7.406 59.649 C 7.604 59.970,8.635 59.870,8.827 59.511 C 9.256 58.710,8.928 58.000,8.129 58.000 C 7.552 58.000,7.235 57.297,7.180 55.895 C 7.171 55.666,6.991 55.468,6.669 55.334 C 6.092 55.095,5.836 54.401,5.834 53.075 C 5.833 52.117,5.634 51.833,4.963 51.833 C 4.323 51.833,4.176 51.381,4.182 49.420 C 4.187 47.535,4.202 47.568,3.267 47.428 C 2.825 47.362,2.489 47.211,2.428 47.053 C 2.338 46.818,2.286 46.824,1.968 47.102 C 1.645 47.386,1.620 47.389,1.717 47.125 C 1.835 46.799,1.825 46.787,1.571 46.961 M72.681 48.741 C 72.698 49.521,72.771 50.122,72.844 50.077 C 72.917 50.031,73.027 50.076,73.088 50.175 C 73.213 50.376,73.833 49.905,73.833 49.609 C 73.833 49.514,73.725 49.582,73.593 49.760 C 73.366 50.064,73.355 50.054,73.402 49.583 C 73.430 49.299,73.587 49.011,73.767 48.917 C 74.505 48.527,74.152 47.489,73.247 47.389 L 72.649 47.324 72.681 48.741 M71.059 51.956 C 70.748 52.962,70.963 53.833,71.521 53.833 C 72.324 53.833,72.763 53.055,72.558 52.000 C 72.429 51.340,71.260 51.305,71.059 51.956 M69.875 55.131 C 69.214 55.235,69.317 56.917,69.984 56.917 C 70.250 56.917,70.433 56.860,70.391 56.792 C 70.348 56.723,70.431 56.667,70.573 56.667 C 70.716 56.667,70.815 56.573,70.792 56.458 C 70.769 56.344,70.844 56.269,70.958 56.292 C 71.223 56.345,71.227 56.127,70.967 55.867 C 70.857 55.757,70.841 55.667,70.931 55.667 C 71.021 55.667,71.095 55.535,71.095 55.375 C 71.095 55.080,70.700 55.001,69.875 55.131 M5.500 55.752 C 5.500 55.888,5.406 56.001,5.292 56.003 C 5.138 56.004,5.143 56.043,5.309 56.148 C 5.461 56.244,5.477 56.328,5.357 56.402 C 5.158 56.525,4.444 55.892,4.564 55.698 C 4.716 55.451,5.500 55.496,5.500 55.752 M66.333 60.734 C 66.334 61.345,66.378 61.419,66.750 61.441 C 66.979 61.454,67.167 61.393,67.167 61.306 C 67.167 61.218,67.236 61.190,67.322 61.243 C 67.407 61.296,67.525 61.261,67.583 61.167 C 67.642 61.072,67.755 61.035,67.834 61.084 C 67.914 61.133,67.908 60.928,67.823 60.629 C 67.737 60.330,67.667 60.078,67.667 60.068 C 67.667 60.059,67.367 60.051,67.000 60.051 L 66.333 60.051 66.333 60.734 M9.220 61.449 C 8.802 61.531,8.713 62.464,9.108 62.616 C 9.231 62.663,9.292 62.765,9.245 62.842 C 9.197 62.919,9.310 62.953,9.496 62.918 C 9.681 62.882,9.833 62.932,9.833 63.030 C 9.833 63.142,9.925 63.131,10.083 63.000 C 10.236 62.873,10.333 62.508,10.333 62.063 C 10.333 61.286,10.262 61.247,9.220 61.449 M14.037 66.301 C 13.386 66.348,13.329 66.389,13.380 66.765 C 13.569 68.181,15.167 68.246,15.167 66.838 C 15.167 66.299,15.020 66.229,14.037 66.301 M60.000 67.083 L 60.000 67.833 59.260 67.833 L 58.519 67.833 58.468 68.542 C 58.423 69.158,58.362 69.256,58.000 69.295 C 56.620 69.444,56.538 69.485,56.470 70.070 C 56.422 70.477,56.486 70.682,56.702 70.817 C 56.871 70.922,57.000 70.934,57.000 70.844 C 57.000 70.757,57.138 70.712,57.306 70.745 C 57.637 70.809,58.012 70.635,58.056 70.398 C 58.071 70.317,58.131 70.266,58.189 70.285 C 58.247 70.304,58.291 70.229,58.287 70.118 C 58.262 69.345,58.655 69.044,59.253 69.378 C 59.500 69.517,59.534 69.496,59.445 69.265 C 59.386 69.110,59.403 69.023,59.483 69.073 C 59.678 69.193,59.929 68.855,60.064 68.292 C 60.173 67.832,60.459 67.730,61.417 67.807 C 61.665 67.827,61.692 67.797,61.524 67.688 C 61.366 67.586,61.354 67.507,61.482 67.428 C 62.096 67.048,61.672 66.333,60.833 66.333 L 60.000 66.333 60.000 67.083 M15.766 68.102 C 15.695 68.287,15.735 68.343,15.896 68.281 C 16.056 68.220,16.105 68.285,16.051 68.489 C 16.008 68.653,16.077 68.827,16.204 68.876 C 16.368 68.939,16.445 68.803,16.472 68.399 C 16.514 67.782,15.976 67.556,15.766 68.102 M18.012 69.689 C 18.033 70.107,18.247 70.416,18.528 70.438 C 18.702 70.451,18.773 70.371,18.718 70.227 C 18.660 70.075,18.713 70.028,18.877 70.091 C 19.012 70.143,19.164 70.082,19.213 69.954 C 19.262 69.827,19.215 69.713,19.109 69.701 C 19.003 69.690,18.710 69.631,18.458 69.571 C 18.126 69.491,18.003 69.524,18.012 69.689 M53.208 70.954 C 52.593 71.030,52.415 71.939,52.917 72.440 C 53.099 72.623,53.167 72.633,53.167 72.479 C 53.167 72.314,53.211 72.311,53.367 72.467 C 53.817 72.917,55.209 72.316,55.405 71.587 C 55.579 70.937,54.906 70.743,53.208 70.954 M19.894 71.542 C 20.020 71.840,20.208 72.065,20.311 72.042 C 20.415 72.019,20.500 72.075,20.500 72.167 C 20.500 72.258,20.556 72.324,20.625 72.314 C 21.038 72.248,21.504 72.358,21.417 72.500 C 21.360 72.592,21.393 72.667,21.490 72.667 C 21.587 72.667,21.667 72.592,21.667 72.500 C 21.667 72.408,21.784 72.333,21.927 72.333 C 22.069 72.333,22.140 72.409,22.083 72.501 C 22.023 72.598,22.159 72.587,22.406 72.475 C 22.757 72.315,22.833 72.165,22.833 71.640 L 22.833 71.000 21.250 71.000 L 19.666 71.000 19.894 71.542 M24.558 72.628 C 24.275 72.808,24.185 73.865,24.458 73.806 C 24.527 73.792,24.771 73.857,25.000 73.952 C 25.509 74.162,26.541 74.034,26.446 73.772 C 26.409 73.668,26.453 73.439,26.544 73.263 C 26.844 72.681,25.265 72.176,24.558 72.628 M48.773 72.751 C 48.323 73.201,48.581 74.002,49.186 74.029 C 50.260 74.078,50.493 74.003,50.601 73.573 C 50.660 73.339,50.793 73.179,50.896 73.219 C 51.150 73.316,51.550 72.884,51.332 72.749 C 51.241 72.693,51.167 72.726,51.167 72.823 C 51.167 72.921,51.087 73.000,50.990 73.000 C 50.893 73.000,50.854 72.934,50.904 72.854 C 51.131 72.486,49.134 72.390,48.773 72.751 M29.032 74.131 C 28.700 74.184,28.677 74.231,28.862 74.471 C 29.047 74.710,29.029 74.709,28.734 74.458 C 28.409 74.183,27.833 74.056,27.833 74.261 C 27.833 74.510,28.211 75.012,28.525 75.180 C 29.271 75.580,32.491 75.819,32.518 75.476 C 32.527 75.352,32.546 74.987,32.559 74.667 L 32.582 74.083 30.999 74.077 C 30.129 74.073,29.244 74.098,29.032 74.131 M34.778 74.111 C 34.621 74.267,34.644 75.206,34.810 75.469 C 34.902 75.613,35.225 75.669,35.766 75.635 L 36.583 75.583 36.634 74.897 C 36.677 74.300,36.633 74.197,36.300 74.107 C 35.789 73.970,34.916 73.973,34.778 74.111 M37.833 74.152 C 37.302 74.209,37.001 74.305,37.118 74.380 C 37.228 74.452,37.277 74.621,37.225 74.755 C 37.156 74.934,37.259 75.003,37.607 75.011 L 38.083 75.021 37.667 75.202 C 37.131 75.436,38.012 75.643,39.583 75.655 C 40.815 75.663,40.984 75.563,40.966 74.830 C 40.945 73.964,40.500 73.868,37.833 74.152 M43.143 74.107 C 42.717 74.183,42.319 75.000,42.708 75.000 C 42.796 75.000,42.828 75.107,42.778 75.237 C 42.473 76.032,45.608 75.777,46.209 74.958 C 46.462 74.615,46.717 74.333,46.777 74.333 C 46.836 74.333,46.742 74.497,46.567 74.697 L 46.250 75.060 46.692 74.739 C 47.049 74.478,47.087 74.390,46.890 74.278 C 46.609 74.118,43.799 73.989,43.143 74.107 " stroke="none" fill="#948484" fill-rule="evenodd"></path></g></svg>